<svg xmlns="http://www.w3.org/2000/svg" viewBox="0 0 350.28 350.18"><defs><style>.cls-1{fill:#fff;}</style></defs><g id="Layer_2" data-name="Layer 2"><g id="Layer_1-2" data-name="Layer 1"><path class="cls-1" d="M123.81,350.18h-65a11.44,11.44,0,0,0-1.91-.61A65.6,65.6,0,0,1,1.83,300c-.71-2.85-1.22-5.75-1.83-8.63V58.85a11.36,11.36,0,0,0,.61-1.93C5.41,23.75,32.22.15,65.88.08Q175.14-.15,284.41,0c9.34,0,18.49,1.41,26.86,5.61,25.13,12.6,38.87,32.71,38.92,61.22q.15,94.37,0,188.74c0,10.48.19,21-.11,31.45a65.37,65.37,0,0,1-49.76,61.2c-3,.72-6,1.28-9,1.92H227.78a6.48,6.48,0,0,0-1.22-.58c-6.14-1.72-7.53-3.39-7.78-9.78-.13-3.53,0-7.07-.07-10.6-.17-17.43-.1-34.87-.61-52.29A34.62,34.62,0,0,0,210,255.6c-.82-1-1.68-1.94-2.78-3.2,2-.29,3.42-.52,4.88-.72,11.32-1.53,22.35-4,32.83-8.81,17.79-8.19,30.28-21,36.36-39.85a120.86,120.86,0,0,0,5.51-34.93c.36-17.8-4.58-33.66-16.29-47.29a5,5,0,0,1-.76-4.13c3.81-11.17,3.64-22.38.65-33.64-3.26-12.32-5.13-13.33-17.54-9.37a136.67,136.67,0,0,0-31.28,15.07,8,8,0,0,1-5.6.94,165,165,0,0,0-81.15.07,7.37,7.37,0,0,1-6.63-1.21A115.23,115.23,0,0,0,98.08,74.11c-4-1.31-8.44-1.49-12.71-1.9A3.51,3.51,0,0,0,82.59,74c-5.2,13.77-7.09,27.77-2.15,42a4.75,4.75,0,0,1-1,5.43,63,63,0,0,0-14,27.37c-2.67,11.16-2.28,22.4-1,33.63,1.57,13.61,5.35,26.61,13.13,38,10.88,16,27.08,23.87,45.22,28.37,6.49,1.61,13.16,2.49,20,3.75-.53.68-1,1.32-1.48,1.89a29,29,0,0,0-7.95,15.95c-.63,4.85-3.21,6.84-7.42,7.77-.89.19-1.75.52-2.64.69-9.88,1.89-19.66,3-28.74-3a38.74,38.74,0,0,1-12.31-13.06,41.2,41.2,0,0,0-17-16.36,24.66,24.66,0,0,0-14.49-3c-4.39.51-5.32,2.35-2.61,5.71,1.54,1.91,3.67,3.35,5.51,5,3.4,3.13,7.45,5.83,10,9.55,3.78,5.47,6.32,11.78,9.72,17.53A52.24,52.24,0,0,0,81,292c7.22,7.15,16.69,9.12,26.38,9.5,7.9.31,15.82-.21,23.94-.37,0,.38.14,1.27.15,2.16.11,11.4.1,22.8.37,34.19C132,343.67,129.9,348.11,123.81,350.18Z"/><path class="cls-1" d="M91.59,277.3c-1.74,1.22-3.12,2.58-3.46,2.36a37.48,37.48,0,0,1-4.52-4c.93-.8,2.24-2.45,2.72-2.23C88,274.22,89.4,275.61,91.59,277.3Z"/><path class="cls-1" d="M112.94,289.62c-1.42-1.67-3-2.67-3-3.73-.12-2.48,2.24-2.7,3.91-2.42,1.18.2,2.16,1.58,3.23,2.43Z"/><path class="cls-1" d="M98.41,279.83l4.35,4.11c-.83.86-2,2.59-2.43,2.42a25.21,25.21,0,0,1-4.79-2.83Z"/><path class="cls-1" d="M127,280.51l3.34,3.39c-1.43,1-2.76,2.4-4.35,2.89-.65.2-1.89-1.52-2.87-2.36Z"/><path class="cls-1" d="M82.14,267.49c-1.44,1.06-2.82,2.32-3,2.17a19.79,19.79,0,0,1-3.59-4.05,8.11,8.11,0,0,1,2.19-2.14A45.06,45.06,0,0,1,82.14,267.49Z"/><path class="cls-1" d="M75,257.89c-1.57.95-2.81,2-3,1.79a32.46,32.46,0,0,1-3.21-3.59c.64-.54,1.6-1.66,1.85-1.52A39.82,39.82,0,0,1,75,257.89Z"/><path class="cls-1" d="M62.07,248.63a39,39,0,0,1,4,1.38,9.51,9.51,0,0,1-.43,1.93l-4.17-1.22Z"/></g></g></svg>