<svg xmlns="http://www.w3.org/2000/svg" xmlns:xlink="http://www.w3.org/1999/xlink" viewBox="0 0 395.74 368.05"><defs><style>.cls-1{fill:url(#linear-gradient);}.cls-2{fill:url(#linear-gradient-2);}.cls-3{fill:none;}.cls-4{isolation:isolate;}.cls-10,.cls-5{fill:#bfc8d6;}.cls-49,.cls-5,.cls-67,.cls-75{opacity:0.3;}.cls-18,.cls-19,.cls-20,.cls-24,.cls-25,.cls-26,.cls-27,.cls-34,.cls-42,.cls-49,.cls-5,.cls-67,.cls-75{mix-blend-mode:multiply;}.cls-6{clip-path:url(#clip-path);}.cls-7{opacity:0.5;}.cls-12,.cls-7{mix-blend-mode:soft-light;}.cls-12,.cls-56,.cls-8{fill:#fff;}.cls-9{clip-path:url(#clip-path-2);}.cls-11{fill:#d8dee8;}.cls-12{opacity:0.48;}.cls-13{fill:url(#linear-gradient-5);}.cls-14{fill:url(#linear-gradient-6);}.cls-15{fill:url(#linear-gradient-7);}.cls-16{fill:url(#linear-gradient-8);}.cls-17{clip-path:url(#clip-path-3);}.cls-18,.cls-19,.cls-20,.cls-34{opacity:0.4;}.cls-18{fill:url(#linear-gradient-9);}.cls-19{fill:url(#linear-gradient-10);}.cls-20{fill:url(#linear-gradient-11);}.cls-21,.cls-42{opacity:0.6;}.cls-22{fill:url(#linear-gradient-12);}.cls-23{fill:url(#linear-gradient-13);}.cls-24,.cls-25,.cls-26,.cls-27,.cls-56{opacity:0.9;}.cls-24{fill:url(#linear-gradient-14);}.cls-25{fill:url(#linear-gradient-15);}.cls-26{fill:url(#linear-gradient-16);}.cls-27{fill:url(#linear-gradient-17);}.cls-28{clip-path:url(#clip-path-4);}.cls-29{fill:url(#linear-gradient-18);}.cls-30{fill:url(#linear-gradient-19);}.cls-31{fill:url(#linear-gradient-20);}.cls-32{fill:url(#linear-gradient-21);}.cls-33{fill:url(#linear-gradient-22);}.cls-34{fill:url(#linear-gradient-23);}.cls-35{fill:url(#linear-gradient-24);}.cls-36{fill:url(#linear-gradient-25);}.cls-37{fill:url(#linear-gradient-26);}.cls-38{fill:url(#linear-gradient-27);}.cls-39{fill:url(#linear-gradient-28);}.cls-40{fill:url(#linear-gradient-29);}.cls-41{fill:url(#linear-gradient-30);}.cls-42{fill:url(#linear-gradient-31);}.cls-43{fill:url(#linear-gradient-32);}.cls-44{fill:url(#linear-gradient-33);}.cls-45{fill:url(#linear-gradient-34);}.cls-46{fill:url(#linear-gradient-35);}.cls-47{fill:url(#linear-gradient-36);}.cls-48{fill:url(#linear-gradient-37);}.cls-49{fill:url(#linear-gradient-38);}.cls-50{fill:url(#linear-gradient-39);}.cls-51{fill:url(#linear-gradient-40);}.cls-52{fill:url(#linear-gradient-41);}.cls-53{fill:url(#linear-gradient-42);}.cls-54{fill:#bfc6d1;}.cls-55{fill:url(#linear-gradient-43);}.cls-57{fill:url(#linear-gradient-44);}.cls-58{fill:url(#linear-gradient-45);}.cls-59{fill:url(#linear-gradient-46);}.cls-60{fill:url(#linear-gradient-47);}.cls-61{fill:url(#linear-gradient-48);}.cls-62{fill:url(#linear-gradient-49);}.cls-63{fill:url(#linear-gradient-50);}.cls-64{fill:url(#linear-gradient-51);}.cls-65{fill:url(#linear-gradient-52);}.cls-66{fill:url(#linear-gradient-53);}.cls-68{fill:url(#linear-gradient-54);}.cls-69{fill:url(#linear-gradient-55);}.cls-70{fill:url(#linear-gradient-56);}.cls-71{fill:url(#linear-gradient-57);}.cls-72{fill:url(#linear-gradient-58);}.cls-73{fill:url(#linear-gradient-59);}.cls-74{fill:url(#linear-gradient-60);}.cls-75{fill:url(#linear-gradient-61);}.cls-76{fill:url(#linear-gradient-62);}.cls-77{fill:url(#linear-gradient-63);}.cls-78{fill:url(#linear-gradient-64);}.cls-79{fill:url(#linear-gradient-65);}</style><linearGradient id="linear-gradient" x1="59.16" y1="131.79" x2="224.16" y2="131.79" gradientUnits="userSpaceOnUse"><stop offset="0" stop-color="#ff9085"/><stop offset="1" stop-color="#fb6fbb"/></linearGradient><linearGradient id="linear-gradient-2" x1="112.65" y1="86.15" x2="64.64" y2="215.02" gradientUnits="userSpaceOnUse"><stop offset="0" stop-color="#ffc444"/><stop offset="1" stop-color="#f36f56"/></linearGradient><clipPath id="clip-path" transform="translate(4.33 13.87)"><path class="cls-1" d="M224.16,263.58c-12.74-12-29.55-31.37-37.16-58.83-10-36,4.64-54.19,3-115.15C189,51.06,187.84,24.18,168.41,9.8,153.18-1.47,128.53-3.71,113.57,6.73c-12.44,8.69-19.64,27.16-21.83,40.35C90,57.82,91.39,65.62,85.19,71.29S72,73.8,66.11,78.08c-12,8.69-5.06,37.48-3.93,42.13,12.49,51.75,60.18,86.65,81.16,101.62A322.45,322.45,0,0,0,224.16,263.58Z"/></clipPath><clipPath id="clip-path-2" transform="translate(4.33 13.87)"><path class="cls-2" d="M155.73,262.73c-27.58.24-62.75-3.4-96.45-18.57-8.6-3.87-61.74-27.79-55.51-52,2.19-8.53,9.9-9.89,13-21.23,3.71-13.44-4.74-20.13-10.61-36.86-3.51-10-13.77-39.21,3.72-55.42C20.36,69,40.24,64.36,55.39,67.87,77.61,73,85.28,94.62,97.64,131.4c11,32.61,8.16,40.62,16.46,64C120.25,212.68,131.83,236.53,155.73,262.73Z"/></clipPath><linearGradient id="linear-gradient-5" x1="12.7" y1="325.69" x2="380.98" y2="325.69" gradientUnits="userSpaceOnUse"><stop offset="0.49" stop-color="#ebeff2"/><stop offset="1" stop-color="#fff"/></linearGradient><linearGradient id="linear-gradient-6" x1="190.01" y1="169.2" x2="8.63" y2="267.05" gradientUnits="userSpaceOnUse"><stop offset="0" stop-color="#444b8c"/><stop offset="1" stop-color="#26264f"/></linearGradient><linearGradient id="linear-gradient-7" x1="158.44" y1="97.75" x2="281.5" y2="493.2" xlink:href="#linear-gradient-6"/><linearGradient id="linear-gradient-8" x1="159.81" y1="100.74" x2="278.27" y2="481.39" gradientUnits="userSpaceOnUse"><stop offset="0" stop-color="#aa80f9"/><stop offset="1" stop-color="#6165d7"/></linearGradient><clipPath id="clip-path-3" transform="translate(4.33 13.87)"><path class="cls-3" d="M319,92.85l-267-4.58c-5.32-.09-9.64,4.45-9.64,10.15V258.74c0,5.7,4.32,10.16,9.64,10l267-9.52c4.5-.16,8.14-4.53,8.14-9.75v-147C327.1,97.23,323.46,92.93,319,92.85Z"/></clipPath><linearGradient id="linear-gradient-9" x1="353.16" y1="-75.53" x2="274.04" y2="269.24" gradientUnits="userSpaceOnUse"><stop offset="0" stop-color="#e38ddd"/><stop offset="1" stop-color="#9571f6"/></linearGradient><linearGradient id="linear-gradient-10" x1="162.4" y1="-65.72" x2="84.71" y2="272.81" xlink:href="#linear-gradient-9"/><linearGradient id="linear-gradient-11" x1="227.85" y1="129.65" x2="225.09" y2="166.74" xlink:href="#linear-gradient-9"/><linearGradient id="linear-gradient-12" x1="119.49" y1="49.57" x2="112.99" y2="136.77" xlink:href="#linear-gradient"/><linearGradient id="linear-gradient-13" x1="92.18" y1="49.79" x2="85.83" y2="134.96" xlink:href="#linear-gradient"/><linearGradient id="linear-gradient-14" x1="3229" y1="148.55" x2="3238.58" y2="206.73" gradientTransform="matrix(-1, 0, 0, 1, 3340.21, 13.87)" xlink:href="#linear-gradient"/><linearGradient id="linear-gradient-15" x1="3233.65" y1="148.04" x2="3243.29" y2="206.59" gradientTransform="matrix(-1, 0, 0, 1, 3340.21, 13.87)" xlink:href="#linear-gradient"/><linearGradient id="linear-gradient-16" x1="3238.33" y1="147.52" x2="3248.04" y2="206.45" gradientTransform="matrix(-1, 0, 0, 1, 3340.21, 13.87)" xlink:href="#linear-gradient"/><linearGradient id="linear-gradient-17" x1="3243.06" y1="146.99" x2="3252.82" y2="206.31" gradientTransform="matrix(-1, 0, 0, 1, 3340.21, 13.87)" xlink:href="#linear-gradient"/><clipPath id="clip-path-4" transform="translate(4.33 13.87)"><path class="cls-3" d="M210.59,157.41V263.52L52.06,269a9.52,9.52,0,0,1-9.77-9.72v-109l162.9,1.91A5.4,5.4,0,0,1,210.59,157.41Z"/></clipPath><linearGradient id="linear-gradient-18" x1="40.1" y1="211.03" x2="209.21" y2="211.03" xlink:href="#linear-gradient-6"/><linearGradient id="linear-gradient-19" x1="123" y1="202.65" x2="-62.36" y2="421.24" xlink:href="#linear-gradient-2"/><linearGradient id="linear-gradient-20" x1="209.09" y1="70.56" x2="108.51" y2="221.58" xlink:href="#linear-gradient-6"/><linearGradient id="linear-gradient-21" x1="57.3" y1="226.27" x2="143.04" y2="226.27" xlink:href="#linear-gradient-6"/><linearGradient id="linear-gradient-22" x1="109.02" y1="111.88" x2="99.36" y2="282.85" xlink:href="#linear-gradient-9"/><linearGradient id="linear-gradient-23" x1="54.65" y1="250.05" x2="108.08" y2="250.05" xlink:href="#linear-gradient-9"/><linearGradient id="linear-gradient-24" x1="72.09" y1="110.28" x2="62.47" y2="280.73" xlink:href="#linear-gradient-9"/><linearGradient id="linear-gradient-25" x1="105.72" y1="273.43" x2="105.88" y2="273.43" xlink:href="#linear-gradient-2"/><linearGradient id="linear-gradient-26" x1="92.4" y1="195.77" x2="118.17" y2="195.77" xlink:href="#linear-gradient-2"/><linearGradient id="linear-gradient-27" x1="527.34" y1="98.58" x2="524.81" y2="102.18" gradientTransform="translate(-391.51 29.89) rotate(6.1)" xlink:href="#linear-gradient-8"/><linearGradient id="linear-gradient-28" x1="522.74" y1="104.3" x2="527.61" y2="94.29" gradientTransform="translate(-391.51 29.89) rotate(6.1)" xlink:href="#linear-gradient-8"/><linearGradient id="linear-gradient-29" x1="526.3" y1="100.17" x2="527.12" y2="99.66" gradientTransform="translate(-387.18 43.76) rotate(6.1)" gradientUnits="userSpaceOnUse"><stop offset="0" stop-color="#444b8c"/><stop offset="1" stop-color="#3e4177"/></linearGradient><linearGradient id="linear-gradient-30" x1="527.06" y1="97.48" x2="524.52" y2="100.49" gradientTransform="translate(-391.51 29.89) rotate(6.1)" xlink:href="#linear-gradient-8"/><linearGradient id="linear-gradient-31" x1="521.88" y1="101.78" x2="524.98" y2="101.78" gradientTransform="translate(-391.51 29.89) rotate(6.1)" gradientUnits="userSpaceOnUse"><stop offset="0" stop-color="#6165d7"/><stop offset="1" stop-color="#aa80f9"/></linearGradient><linearGradient id="linear-gradient-32" x1="2939.42" y1="1070.54" x2="2939.63" y2="1070.54" gradientTransform="matrix(-0.95, -0.31, -0.31, 0.95, 5385.5, 799.06)" gradientUnits="userSpaceOnUse"><stop offset="0" stop-color="#311944"/><stop offset="1" stop-color="#a03976"/></linearGradient><linearGradient id="linear-gradient-33" x1="-6394.49" y1="482.11" x2="-6394.49" y2="481.95" gradientTransform="translate(6476.12 1127) rotate(14.78)" xlink:href="#linear-gradient-2"/><linearGradient id="linear-gradient-34" x1="2942.22" y1="1076.03" x2="2942.42" y2="1076.03" xlink:href="#linear-gradient-32"/><linearGradient id="linear-gradient-35" x1="5195.84" y1="685.58" x2="5195.84" y2="685.41" gradientTransform="matrix(-0.95, -0.31, -0.31, 0.95, 5385.5, 799.06)" gradientUnits="userSpaceOnUse"><stop offset="0" stop-color="#ffc444"/><stop offset="1" stop-color="#f36f56"/></linearGradient><linearGradient id="linear-gradient-36" x1="473.45" y1="-152.37" x2="478.25" y2="-162.24" gradientTransform="matrix(1.03, 0.11, -0.12, 1.09, -394.21, 299.69)" xlink:href="#linear-gradient-8"/><linearGradient id="linear-gradient-37" x1="476.73" y1="-164.66" x2="475.68" y2="-161.19" gradientTransform="matrix(1.03, 0.11, -0.12, 1.09, -394.21, 299.69)" xlink:href="#linear-gradient-8"/><linearGradient id="linear-gradient-38" x1="476.73" y1="-164.66" x2="475.68" y2="-161.19" gradientTransform="matrix(1.03, 0.11, -0.12, 1.09, -394.21, 299.69)" xlink:href="#linear-gradient-8"/><linearGradient id="linear-gradient-39" x1="508.28" y1="101.91" x2="514.01" y2="101.91" gradientTransform="translate(-391.51 29.89) rotate(6.1)" xlink:href="#linear-gradient-8"/><linearGradient id="linear-gradient-40" x1="508.84" y1="102.94" x2="504.23" y2="105.61" gradientTransform="translate(-391.51 29.89) rotate(6.1)" xlink:href="#linear-gradient-8"/><linearGradient id="linear-gradient-41" x1="505.57" y1="101.94" x2="511.87" y2="101.94" gradientTransform="translate(-391.51 29.89) rotate(6.1)" xlink:href="#linear-gradient-8"/><linearGradient id="linear-gradient-42" x1="505.57" y1="101.9" x2="509.35" y2="101.9" gradientTransform="translate(-391.51 29.89) rotate(6.1)" xlink:href="#linear-gradient-8"/><linearGradient id="linear-gradient-43" x1="147.12" y1="273.1" x2="172.81" y2="273.1" xlink:href="#linear-gradient-5"/><linearGradient id="linear-gradient-44" x1="56.35" y1="252.13" x2="203.13" y2="252.13" xlink:href="#linear-gradient"/><linearGradient id="linear-gradient-45" x1="199.43" y1="248.71" x2="191.02" y2="253.25" xlink:href="#linear-gradient-6"/><linearGradient id="linear-gradient-46" x1="1407.48" y1="180.39" x2="1373.38" y2="343.9" gradientTransform="matrix(-1, 0, 0, 1, 1730.4, 0)" xlink:href="#linear-gradient"/><linearGradient id="linear-gradient-47" x1="-1703.76" y1="395.68" x2="-1693.54" y2="395.68" gradientTransform="matrix(1, 0.03, -0.03, 1, 2056, 5.37)" xlink:href="#linear-gradient-6"/><linearGradient id="linear-gradient-48" x1="348.08" y1="348.43" x2="351.74" y2="348.43" xlink:href="#linear-gradient-2"/><linearGradient id="linear-gradient-49" x1="-1262.61" y1="724.18" x2="-1251.76" y2="724.18" gradientTransform="matrix(0.96, 0.27, -0.27, 0.96, 1717.73, -14.7)" xlink:href="#linear-gradient-6"/><linearGradient id="linear-gradient-50" x1="315.44" y1="347.22" x2="319.96" y2="347.22" xlink:href="#linear-gradient-2"/><linearGradient id="linear-gradient-51" x1="1378.76" y1="298.26" x2="1414.91" y2="298.26" gradientTransform="matrix(-1, 0, 0, 1, 1730.4, 0)" xlink:href="#linear-gradient-8"/><linearGradient id="linear-gradient-52" x1="1361.38" y1="298.02" x2="1386.91" y2="298.02" gradientTransform="matrix(-1, 0, 0, 1, 1730.4, 0)" xlink:href="#linear-gradient-8"/><linearGradient id="linear-gradient-53" x1="1395.67" y1="177.93" x2="1361.57" y2="341.44" gradientTransform="matrix(-1, 0, 0, 1, 1730.4, 0)" xlink:href="#linear-gradient"/><linearGradient id="linear-gradient-54" x1="1366.34" y1="317.77" x2="1379.29" y2="256.29" gradientTransform="matrix(-1, 0, 0, 1, 1730.4, 0)" xlink:href="#linear-gradient"/><linearGradient id="linear-gradient-55" x1="1372.31" y1="173.06" x2="1338.21" y2="336.57" gradientTransform="matrix(-1, 0, 0, 1, 1730.4, 0)" xlink:href="#linear-gradient"/><linearGradient id="linear-gradient-56" x1="1401.38" y1="264.34" x2="1395.87" y2="248.71" gradientTransform="matrix(-1, 0, 0, 1, 1734.73, 13.87)" gradientUnits="userSpaceOnUse"><stop offset="0" stop-color="#311944"/><stop offset="1" stop-color="#893976"/></linearGradient><linearGradient id="linear-gradient-57" x1="1377.28" y1="241.69" x2="1379.3" y2="255.67" gradientTransform="matrix(-1, 0, 0, 1, 1730.4, 0)" xlink:href="#linear-gradient-56"/><linearGradient id="linear-gradient-58" x1="341.78" y1="243.89" x2="353.22" y2="243.89" xlink:href="#linear-gradient-2"/><linearGradient id="linear-gradient-59" x1="1417.37" y1="242.92" x2="1406.61" y2="227.64" gradientTransform="matrix(-1, 0, 0, 1, 1730.4, 0)" xlink:href="#linear-gradient-6"/><linearGradient id="linear-gradient-60" x1="1396.73" y1="268.2" x2="1420.28" y2="220.37" gradientTransform="matrix(-1, 0, 0, 1, 1730.4, 0)" xlink:href="#linear-gradient-56"/><linearGradient id="linear-gradient-61" x1="1385.23" y1="237.5" x2="1436.96" y2="237.5" gradientTransform="matrix(-1, 0, 0, 1, 1730.4, 0)" xlink:href="#linear-gradient-56"/><linearGradient id="linear-gradient-62" x1="292.64" y1="249.74" x2="300.35" y2="249.74" xlink:href="#linear-gradient-2"/><linearGradient id="linear-gradient-63" x1="340.09" y1="195.47" x2="360.54" y2="195.47" xlink:href="#linear-gradient-2"/><linearGradient id="linear-gradient-64" x1="-1901.26" y1="41.72" x2="-1908.98" y2="22.1" gradientTransform="translate(2255.77 167.67) rotate(0.21)" gradientUnits="userSpaceOnUse"><stop offset="0" stop-color="#311944"/><stop offset="1" stop-color="#6b3976"/></linearGradient><linearGradient id="linear-gradient-65" x1="347.39" y1="187.64" x2="348.14" y2="209.98" xlink:href="#linear-gradient-2"/></defs><g class="cls-4"><g id="Layer_2" data-name="Layer 2"><g id="Layer_1-2" data-name="Layer 1"><path class="cls-5" d="M374.12,105.9,373,90.48a4.53,4.53,0,0,0-4.81-4.17l-9,.61A70.22,70.22,0,0,0,355,75.27l7.51-5A4.46,4.46,0,0,0,363.68,64l-8.75-12.88a4.53,4.53,0,0,0-6.25-1.25L341.07,55a72.49,72.49,0,0,0-9.38-8.11l4-8.23a4.52,4.52,0,0,0-2.11-6L319.5,25.69a4.5,4.5,0,0,0-6.06,2l-4,8.26a71.52,71.52,0,0,0-12.21-2.42l-.7-9.26a4.64,4.64,0,0,0-4.9-4.24L275.85,21a4.46,4.46,0,0,0-4.23,4.79l.7,9.29a72.3,72.3,0,0,0-11.84,3.89l-5.31-7.74a4.68,4.68,0,0,0-6.4-1.28l-13.19,8.65a4.47,4.47,0,0,0-1.21,6.3l5.33,7.75a70.31,70.31,0,0,0-8.27,9.32l-8.53-4.12a4.65,4.65,0,0,0-6.2,2.06l-7,14.12a4.54,4.54,0,0,0,2.17,6.1l8.47,4.06A69.64,69.64,0,0,0,218,96.44l-9.37.64a4.56,4.56,0,0,0-4.3,4.86l1.19,15.73a4.64,4.64,0,0,0,5,4.23l9.3-.65A70.62,70.62,0,0,0,224,133.14l-7.65,5.11a4.51,4.51,0,0,0-1.22,6.34l9,13a4.69,4.69,0,0,0,6.45,1.19l7.59-5.09a73.78,73.78,0,0,0,9.68,8.22l-4,8.11A4.51,4.51,0,0,0,246,176.1l14.35,6.75a4.64,4.64,0,0,0,6.14-2.14l3.92-8A72,72,0,0,0,282.94,175l.67,8.89a4.54,4.54,0,0,0,4.91,4.15l15.72-1.24a4.56,4.56,0,0,0,4.21-4.86l-.68-8.86a71.15,71.15,0,0,0,11.92-4.15l5,7.3a4.54,4.54,0,0,0,6.3,1.16l12.89-8.79a4.49,4.49,0,0,0,1.19-6.25l-5-7.34a72.3,72.3,0,0,0,8.13-9.44l8,3.86a4.52,4.52,0,0,0,6-2.1l6.71-13.94a4.5,4.5,0,0,0-2.1-6l-8.06-3.89A70,70,0,0,0,361,111.31l9-.64A4.44,4.44,0,0,0,374.12,105.9Zm-80.59,43.77c-25.48,1.9-47.8-17-49.72-42.34a45.51,45.51,0,0,1,42.81-48.72C312,57,333.94,76,335.84,101A45.52,45.52,0,0,1,293.53,149.67Z" transform="translate(4.33 13.87)"/><path class="cls-1" d="M224.16,263.58c-12.74-12-29.55-31.37-37.16-58.83-10-36,4.64-54.19,3-115.15C189,51.06,187.84,24.18,168.41,9.8,153.18-1.47,128.53-3.71,113.57,6.73c-12.44,8.69-19.64,27.16-21.83,40.35C90,57.82,91.39,65.62,85.19,71.29S72,73.8,66.11,78.08c-12,8.69-5.06,37.48-3.93,42.13,12.49,51.75,60.18,86.65,81.16,101.62A322.45,322.45,0,0,0,224.16,263.58Z" transform="translate(4.33 13.87)"/><g class="cls-6"><g class="cls-7"><path class="cls-8" d="M238.72,273.11c-22.2-8.44-41.32-18.51-56.81-29.92-22.93-16.9-37.21-36.32-42.45-57.7-4.09-16.73-2.58-34.86-.65-57.81a323.65,323.65,0,0,1,6.94-44.11c3.25-15.24,5.82-27.28,4-44.68C148,21.2,142.15,3.62,132.45-13.38l.87-.49C143.08,3.25,149,21,150.78,38.79c1.8,17.56-.78,29.66-4.05,45a322.27,322.27,0,0,0-6.93,44c-2,23.76-3.43,40.92.63,57.49,5.18,21.15,19.33,40.38,42.07,57.13,15.42,11.36,34.45,21.39,56.58,29.8Z" transform="translate(4.33 13.87)"/><path class="cls-8" d="M140.5,114.34l-.16-.54C130.09,79.41,111.7,57.88,98.07,45.88c-14.77-13-27.28-18-27.41-18L71,27c.13.05,12.77,5,27.67,18.15,13.67,12,32.09,33.54,42.44,67.87a91.61,91.61,0,0,0,24.55-18.19C177.17,82.93,191,62.26,191.77,31l1,0C192,62.63,178,83.53,166.36,95.5A90.44,90.44,0,0,1,141,114.12Z" transform="translate(4.33 13.87)"/><path class="cls-8" d="M137.62,165.7l-.35-.1c-16.74-4.92-35.74-24.19-56.48-57.28A461.77,461.77,0,0,1,54.62,60l.91-.41A461.46,461.46,0,0,0,81.65,107.8c14.08,22.47,35.12,50.49,55.56,56.73a262.63,262.63,0,0,1,28.59-34c16.23-15.92,54-21.42,54.38-21.48l.14,1c-.38.06-37.83,5.51-53.82,21.2a261.87,261.87,0,0,0-28.68,34.13Z" transform="translate(4.33 13.87)"/><path class="cls-8" d="M175.69,238.51l-1-.11c-.19,0-19-2.33-43.6-10.9-22.7-7.92-55.1-22.95-80.58-49.6L1.36,126.45l.72-.69,49.18,51.45c25.33,26.51,57.58,41.46,80.18,49.34a236.68,236.68,0,0,0,42.4,10.72,46,46,0,0,1-5.66-29.6c1.25-8.32,4.8-16.76,10.55-25.08a102.49,102.49,0,0,1,22.87-23.25l.57.82a101.27,101.27,0,0,0-22.63,23c-5.66,8.19-9.15,16.49-10.37,24.65-1.53,10.19.5,20.22,6,29.82Z" transform="translate(4.33 13.87)"/></g></g><path class="cls-2" d="M155.73,262.73c-27.58.24-62.75-3.4-96.45-18.57-8.6-3.87-61.74-27.79-55.51-52,2.19-8.53,9.9-9.89,13-21.23,3.71-13.44-4.74-20.13-10.61-36.86-3.51-10-13.77-39.21,3.72-55.42C20.36,69,40.24,64.36,55.39,67.87,77.61,73,85.28,94.62,97.64,131.4c11,32.61,8.16,40.62,16.46,64C120.25,212.68,131.83,236.53,155.73,262.73Z" transform="translate(4.33 13.87)"/><g class="cls-9"><g class="cls-7"><path class="cls-8" d="M224.74,277.51A164.9,164.9,0,0,1,186.05,273c-37.24-8.91-69.55-31.13-96-66.05-27.54-36.29-41.89-77.22-49.09-105.17-5-19.47-4.09-41,2.73-64l1,.28c-6.76,22.86-7.67,44.23-2.71,63.52,7.17,27.86,21.48,68.65,48.91,104.82,26.35,34.73,58.48,56.83,95.48,65.68,27.78,6.65,57.17,5.92,87.37-2.18l.25,1A189.58,189.58,0,0,1,224.74,277.51Z" transform="translate(4.33 13.87)"/><path class="cls-8" d="M60.75,156.91l-.38-.25C.85,118.32,1.38,74.09,3,61.45,3,61.2,3,61,3,61H4c0,.1,0,.24-.06.62-1.56,12.46-2.06,56,56.58,94a114.38,114.38,0,0,0,13.61-23.91c5.68-13.46,11.24-34.07,5.45-55.88l1-.25c5.86,22.08.24,42.94-5.51,56.54a113.14,113.14,0,0,1-14,24.48Z" transform="translate(4.33 13.87)"/><path class="cls-8" d="M67.38,208.27c-23.7,0-40.26-6.18-50.73-12.15a71.88,71.88,0,0,1-16-12.31,40.08,40.08,0,0,1-4.93-6l.85-.52c.06.09,6.18,9.73,20.68,18,24.14,13.75,52.65,13.21,72.41,10.3,1.4-3.11,15.47-35.76,12.11-79.43L98.15,79.76l1-.07,3.57,46.38c3.54,46-12.15,79.84-12.31,80.18l-.11.24-.27,0A154.55,154.55,0,0,1,67.38,208.27Z" transform="translate(4.33 13.87)"/></g></g><path class="cls-10" d="M381,323,12.7,319.79v9.42a5,5,0,0,0,3.79,5.12l104.13,18.55a14.65,14.65,0,0,0,3.74.17L377,331.9c2.26-.19,4-2.37,4-5Z" transform="translate(4.33 13.87)"/><path class="cls-10" d="M245.46,307.88,11.39,325.11a7.1,7.1,0,0,1-7.6-7.32V143.49a7.75,7.75,0,0,1,7.6-7.88l8.28,4.77,225.79-4.77c3.45,0,6.24,3.19,6.24,7.12V300.3C251.7,304.23,248.91,307.63,245.46,307.88Z" transform="translate(4.33 13.87)"/><path class="cls-8" d="M249.19,307.88,15.12,325.11a7.1,7.1,0,0,1-7.6-7.32V143.49a7.75,7.75,0,0,1,7.6-7.88H249.19c3.45,0,6.24,3.19,6.24,7.12V300.3C255.43,304.23,252.64,307.63,249.19,307.88Z" transform="translate(4.33 13.87)"/><path class="cls-11" d="M241.9,296.77l-218,15a5.82,5.82,0,0,1-6.17-6V153.13a6.34,6.34,0,0,1,6.17-6.46l218-.94c2.84,0,5.15,2.6,5.15,5.83v139C247.05,293.79,244.74,296.58,241.9,296.77Z" transform="translate(4.33 13.87)"/><path class="cls-8" d="M140.42,140.38a2.7,2.7,0,1,1-2.69-2.93A2.83,2.83,0,0,1,140.42,140.38Z" transform="translate(4.33 13.87)"/><path class="cls-12" d="M15.12,325.11,248,308l1.19-.09a6.29,6.29,0,0,0,4.12-2.09c-16.76-.91-27.17-6.86-33.88-13-13.49-12.34-11.15-24.51-25.69-32.62-18.14-10.12-32.4,2.7-46.16-10-8.34-7.67-4.25-13.39-14.51-24.85-11.38-12.7-18.78-8.43-30.21-19.86-14.45-14.45-7.22-25.69-19.67-36.06-15.1-12.59-31.38-.94-45.76-13-6.2-5.21-9.6-12.77-11.38-20.82H15.12a7.75,7.75,0,0,0-7.6,7.88v174.3A7.1,7.1,0,0,0,15.12,325.11Z" transform="translate(4.33 13.87)"/><path class="cls-13" d="M260.22,306.92,12.7,325.06l107.92,19.22a14.66,14.66,0,0,0,3.74.18L381,323,264.15,307.05A19.13,19.13,0,0,0,260.22,306.92Z" transform="translate(4.33 13.87)"/><polygon class="cls-11" points="53.15 339.09 259.21 323.76 322.99 332.39 118.7 348.77 53.15 339.09"/><path class="cls-8" d="M119.7,254.1V202.63c0-3.3,2.8-5.37,5.22-3.85L168,225.84c2.69,1.69,2.69,6.47,0,8l-43.1,24.44C122.5,259.64,119.7,257.41,119.7,254.1Z" transform="translate(4.33 13.87)"/><path class="cls-14" d="M48.65,273.91c-8.11.3-14.73-6.32-14.73-14.74V98.6a14.71,14.71,0,0,1,14.73-15l267.06,5c6.86.13,12.42,6.5,12.42,14.21V249.57c0,7.7-5.56,14.18-12.42,14.43Z" transform="translate(4.33 13.87)"/><path class="cls-15" d="M52,273.91c-8.11.3-14.73-6.32-14.73-14.74V98.6A14.71,14.71,0,0,1,52,83.59l267.06,5c6.86.13,12.42,6.5,12.42,14.21V249.57c0,7.7-5.56,14.18-12.42,14.43Z" transform="translate(4.33 13.87)"/><path class="cls-16" d="M319,93.12,52,88.52c-5.31-.09-9.63,4.46-9.63,10.15V259c0,5.7,4.32,10.16,9.63,10L319,259.45c4.5-.16,8.14-4.52,8.14-9.74v-147C327.16,97.49,323.52,93.2,319,93.12Z" transform="translate(4.33 13.87)"/><g class="cls-17"><path class="cls-18" d="M252.13,49.6c-1.43.38-31,58.84,0,81.61,31.23,23-14.36,35.85,28.89,50.3,43.75,14.62,18.75,44.14-9.34,34.91-27.89-9.16-48.68-11.31-42.68,19s-34,39.74-16.12,48.14,124.68.16,126.58.16,27.9-78.53,27.78-86.15S362.33,19.68,252.13,49.6Z" transform="translate(4.33 13.87)"/><path class="cls-19" d="M140.55,69.08s90.7,43.34,41.43,59.73c-48.63,16.18-67.42,9.14-61.85,22.4S160,163.06,190.44,164c30.72,1,31,16.36,6.08,23.18-24.75,6.79-35.19,22.65-27.93,34.19s27.79,45.42,5.45,50.78-33.49-82.47-72-83.87C63.86,186.9,8.67,208,6.06,168.07s25.28-97.8,27-96S140.55,69.08,140.55,69.08Z" transform="translate(4.33 13.87)"/><path class="cls-20" d="M229.46,129.76s-24.15,2.1-16.12,12.91-.72,11.91,7.23,20.66,13.27-.66,18.82-8.47S241.93,134,229.46,129.76Z" transform="translate(4.33 13.87)"/><path class="cls-8" d="M272.74,117.82a6.19,6.19,0,1,1-6.18-6.09A6.17,6.17,0,0,1,272.74,117.82Z" transform="translate(4.33 13.87)"/><path class="cls-8" d="M290.82,117.75a6.18,6.18,0,1,1-6.17-6.09A6.17,6.17,0,0,1,290.82,117.75Z" transform="translate(4.33 13.87)"/><path class="cls-8" d="M308.86,117.68a6.15,6.15,0,0,1-6.16,6.12,6.09,6.09,0,0,1-6.16-6.07,6.16,6.16,0,0,1,12.32,0Z" transform="translate(4.33 13.87)"/><g class="cls-21"><polygon class="cls-8" points="382.94 158.72 5.61 160.7 5.61 159.34 382.94 157.39 382.94 158.72"/><polygon class="cls-8" points="382.94 195.63 5.61 198.34 5.61 196.97 382.94 194.29 382.94 195.63"/><polygon class="cls-8" points="382.94 232.53 5.61 235.97 5.61 234.61 382.94 231.19 382.94 232.53"/><polygon class="cls-8" points="151.19 290.45 149.84 290.46 149.84 86.59 151.19 86.59 151.19 290.45"/><polygon class="cls-8" points="206.66 289.78 205.29 289.8 205.29 86.5 206.66 86.49 206.66 289.78"/><polygon class="cls-8" points="261.11 289.13 259.71 289.14 259.71 86.42 261.11 86.42 261.11 289.13"/><polygon class="cls-8" points="315.4 288.47 313.99 288.49 313.99 86.34 315.4 86.34 315.4 288.47"/><polygon class="cls-8" points="98.32 291.09 96.54 291.1 96.54 86.67 98.32 86.65 98.32 291.09"/></g><polygon class="cls-8" points="86.89 137.2 139.65 137.18 139.65 126.99 86.89 126.53 86.89 137.2"/><polygon class="cls-22" points="137.79 135.31 137.79 128.84 88.92 128.5 88.92 135.25 137.79 135.31"/><polygon class="cls-8" points="75.95 137.2 97.63 137.19 90.13 121.88 75.95 121.7 75.95 137.2"/><polygon class="cls-23" points="94.46 135.25 88.85 123.81 78.02 123.69 78.02 135.23 94.46 135.25"/><polygon class="cls-8" points="133.06 134.32 136.43 134.33 136.43 129.81 133.06 129.79 133.06 134.32"/><polygon class="cls-8" points="128.48 134.31 131.87 134.32 131.87 129.78 128.48 129.76 128.48 134.31"/><polygon class="cls-8" points="123.85 134.3 127.27 134.31 127.27 129.75 123.85 129.73 123.85 134.3"/><polygon class="cls-8" points="119.19 134.29 122.63 134.3 122.63 129.73 119.19 129.71 119.19 134.29"/><polygon class="cls-24" points="114.48 134.28 117.96 134.29 117.96 129.7 114.48 129.68 114.48 134.28"/><polygon class="cls-25" points="109.74 134.27 113.24 134.28 113.24 129.67 109.74 129.65 109.74 134.27"/><polygon class="cls-26" points="104.95 134.26 108.49 134.27 108.49 129.64 104.95 129.62 104.95 134.26"/><polygon class="cls-27" points="100.13 134.25 103.69 134.26 103.69 129.61 100.13 129.59 100.13 134.25"/></g><g class="cls-28"><path class="cls-29" d="M51.52,271.15A11.55,11.55,0,0,1,40.1,259.49V150.91l161.59,1.91a7.51,7.51,0,0,1,7.52,7.34V265.82L51.93,271.14Z" transform="translate(4.33 13.87)"/><path class="cls-30" d="M206.92,160.21V264a5.19,5.19,0,0,1-5.28,5.09l-171.27.11A5.43,5.43,0,0,1,24.79,264v-106A5.35,5.35,0,0,1,30.36,153l11.92.15,159.34,1.95A5.29,5.29,0,0,1,206.92,160.21Z" transform="translate(4.33 13.87)"/><path class="cls-31" d="M132.84,264.41a30.37,30.37,0,0,1,1.26-22.23l3.7-8.19a15.81,15.81,0,0,0,1.4-6.66v-4.6a5.86,5.86,0,0,0-2.61-4.95l-15.52-10.25A22.5,22.5,0,0,1,111.81,195c-1.49-5.15-3.57-12-5.81-17.89a19,19,0,0,0-16.63-12.19l-5.28-.34a19.75,19.75,0,0,0-20.84,17.32c-1.14,9.73-3,20.94-6,27.36a32.3,32.3,0,0,0-2.42,19.58c4,20.91,9.5,49.79,6.16,56.91,48,5.27,78.91.21,78.91.21ZM81.31,214.09l-9.39.11s1.13-6.38,2.34-12.25,5.84-8,6.29-8l1.75,0ZM94,214l-3.5-19.79c7.39.19,13,20.43,13.28,20.51S94,214,94,214Z" transform="translate(4.33 13.87)"/><path class="cls-32" d="M135.93,264.4a30.35,30.35,0,0,1,1.27-22.24l3.73-8.19a15.84,15.84,0,0,0,1.42-6.67v-4.6a5.87,5.87,0,0,0-2.64-4.95l-15.54-10.26a22.49,22.49,0,0,1-9.28-12.57c-1.49-5.16-3.58-12-5.82-17.91a19,19,0,0,0-16.66-12.2l-5.27-.33A19.78,19.78,0,0,0,66.26,181.8c-1.14,9.75-3,21-6,27.39a32.3,32.3,0,0,0-2.42,19.58c4,20.93,9.5,49.83,6.16,56.94,48.08,5.28,79,.21,79,.21ZM84.35,214.06l-9.41.1s1.14-6.37,2.35-12.25,5.84-8,6.3-8l1.74,0Zm12.71-.12-3.51-19.8c7.41.19,13.08,20.45,13.31,20.52S97.06,213.94,97.06,213.94Z" transform="translate(4.33 13.87)"/><path class="cls-33" d="M131.63,270.25c3.94-2.69,12.31-9.24,16.05-20.47,5.93-17.83-2.65-38.92-19.34-48.62-19.65-11.41-40.73-1.31-43.27,0-14.47,7.23-20.49,19.72-23.85,26.68-5.88,12.21-14,38.26-2.08,48.39,7,5.94,18,4,31.12,1.79,13.29-2.28,16.71-6.55,17.58-7.72,3.28-4.46,1.74-7.9,3.09-15.65,2.18-12.54,10.22-26.45,16.34-26.06,5,.31,8.61,10.15,9.27,16.92,1.12,11.54-5.78,20.06-7.61,22.19Z" transform="translate(4.33 13.87)"/><path class="cls-34" d="M92.69,252.11c-5.28-8.25,11.42-23,7-29.47-3.12-4.56-15.28-2.83-23.5,1.51-14.76,7.79-18.68,25-20.08,31.14a58,58,0,0,0-1.43,14.44,15.88,15.88,0,0,0,4.47,6.46c7,5.94,18,4,31.12,1.79,13.29-2.28,16.71-6.55,17.58-7.72l.24-.35c0-4.33-1-8.38-3.84-11.24C100.09,254.41,95.21,256,92.69,252.11Z" transform="translate(4.33 13.87)"/><path class="cls-35" d="M92.4,271.22s-28,2.2-22.34-18.33,24.71-36.42,24.71-36.42l-9.7-15.35s-44.91,21.15-50.4,54.24S89.27,277,89.27,277Z" transform="translate(4.33 13.87)"/><path class="cls-36" d="M106.9,276.28s-1.71-5.68-4.39-7-10.11,1.91-10.11,1.91-3.33,4.61-3.13,5.75,6.19,1.42,8.3-.7,5-2.41,6.24-.59A2.19,2.19,0,0,0,106.9,276.28Z" transform="translate(4.33 13.87)"/><polygon class="cls-8" points="96.05 293.45 108.74 299.84 159.17 284.44 159.04 281.86 143.05 280.81 96.73 290.33 96.05 293.45"/><path class="cls-37" d="M106.42,186.61l-2.94,6.26a5.06,5.06,0,0,1-3.11,2.7l-8,2.47s17.46,7.19,17.78,6.87l8-7.88-2.63-.91a4.08,4.08,0,0,1-2.78-3.62l-.31-4.78Z" transform="translate(4.33 13.87)"/><path class="cls-38" d="M119.52,181.65l.51,0c2.1.19,3.57,2.61,3.26,5.41l0,.16c-.3,2.8-2.25,4.92-4.36,4.73l-.51,0c-1.06-.1-1.67-2.48-1.36-5.32S118.46,181.56,119.52,181.65Z" transform="translate(4.33 13.87)"/><path class="cls-39" d="M115.84,186.52c-.34,3.11.62,5.74,2.19,5.88s3.15-2.26,3.49-5.38-.7-5.75-2.27-5.88S116.18,183.41,115.84,186.52Z" transform="translate(4.33 13.87)"/><polygon class="cls-40" points="122.44 206.28 121.84 206.23 123.06 194.96 123.66 195.01 122.44 206.28"/><path class="cls-41" d="M115.28,186.47c-.33,3.11.66,5.75,2.23,5.89s3.11-2.27,3.45-5.38-.66-5.75-2.23-5.89S115.62,183.36,115.28,186.47Z" transform="translate(4.33 13.87)"/><path class="cls-42" d="M116.58,186.59c-.19,1.69.36,3.12,1.21,3.2s1.69-1.24,1.87-2.93-.36-3.12-1.21-3.2S116.76,184.9,116.58,186.59Z" transform="translate(4.33 13.87)"/><path class="cls-43" d="M118.38,186.05a6,6,0,0,0,2.19-6.81c-.79-2.13-2.85-3.07-4.09-3.64-3.56-1.63-8.72-1.68-11.45,1.07-1.61,1.62-.92,6.34-.85,7.17s.66,1.45,1.06,2.28c.56,1.14,1.43,3,2.83,6a15.11,15.11,0,0,1,1.66-2.14,14.27,14.27,0,0,1,2.72-2.25C115.16,186.1,116.51,187.28,118.38,186.05Z" transform="translate(4.33 13.87)"/><path class="cls-44" d="M105.62,189.13a8.73,8.73,0,0,0,6,6c4.43,1.2,8.3-8,6.19-10.91a5.94,5.94,0,0,0-4.1-2c-1-.05-1.4.2-3,.08s-1.79-.38-2.3-.19-1.37,1.13-1.45,4.15a2.53,2.53,0,0,0-2.24-1.64,1.46,1.46,0,0,0-.75.35C103.05,185.86,103.59,187.56,105.62,189.13Z" transform="translate(4.33 13.87)"/><path class="cls-45" d="M108.45,181.52c.16.22-.73.76-1.14,1.8a5.43,5.43,0,0,0,2.65,6.19c1.26.57,1.88-.07,4.12.44a11.06,11.06,0,0,1,3.1,1.24c-.1,2.51-1.51,4.55-3.45,5.06s-4-.87-4.8-1.46a6.59,6.59,0,0,1-2.68-3.71c-.44-2.13,1-2.86.17-4.47a10.21,10.21,0,0,1-1.48-2.77,5.12,5.12,0,0,1-.17-.94C106.27,182.13,108.22,181.2,108.45,181.52Z" transform="translate(4.33 13.87)"/><path class="cls-46" d="M115.31,191.5a5.69,5.69,0,0,1-2.69-.48c-.07,0-.17,0-.19,0s.72,1.15,1.77,1.21c.74.05,1.48-.39,1.45-.58S115.47,191.53,115.31,191.5Z" transform="translate(4.33 13.87)"/><path class="cls-47" d="M106.44,182.24l-.65-.06.23-2c.39-3.4,3.09-6,6.14-5.88l3.27.12a5.65,5.65,0,0,1,4.34,2.31,7.21,7.21,0,0,1,1.37,5.18l-.18,1.58-.65-.06.17-1.58a6.41,6.41,0,0,0-1.22-4.64,5.05,5.05,0,0,0-3.88-2.06l-3.27-.12a5.61,5.61,0,0,0-5.44,5.22Z" transform="translate(4.33 13.87)"/><path class="cls-48" d="M119.64,178.43A.91.91,0,0,1,119,178a4.53,4.53,0,0,0-3.63-2.11l-3.27-.12a4.31,4.31,0,0,0-3.14,1.26.91.91,0,0,1-1.38-.09,1.2,1.2,0,0,1,.14-1.55,6.24,6.24,0,0,1,4.53-1.81l3.27.12a6.34,6.34,0,0,1,5.08,2.95,1.21,1.21,0,0,1-.23,1.54A1,1,0,0,1,119.64,178.43Z" transform="translate(4.33 13.87)"/><path class="cls-49" d="M118.51,176.08c-2.31-1-2.25-1.7-3.49-1.86-2.33-.31-3.54,2.08-5.78,1.56a3.41,3.41,0,0,1-1.28-.63l-.28.25a1.2,1.2,0,0,0-.14,1.55.91.91,0,0,0,1.38.09,4.31,4.31,0,0,1,3.14-1.26l3.27.12A4.53,4.53,0,0,1,119,178a.91.91,0,0,0,.68.42,1,1,0,0,0,.69-.23,1.2,1.2,0,0,0,.3-1.4A14,14,0,0,1,118.51,176.08Z" transform="translate(4.33 13.87)"/><path class="cls-50" d="M108.75,185.8c-.34,3.14-1.9,5.57-3.47,5.43s-2.58-2.8-2.24-5.93,1.89-5.57,3.46-5.43S109.09,182.66,108.75,185.8Z" transform="translate(4.33 13.87)"/><path class="cls-51" d="M108.18,185.75c-.34,3.14-1.89,5.57-3.47,5.43s-2.57-2.8-2.23-5.93,1.89-5.57,3.46-5.43S108.52,182.61,108.18,185.75Z" transform="translate(4.33 13.87)"/><path class="cls-52" d="M105.23,180.25l-.51,0c-2.11-.19-4.07,1.95-4.38,4.77v.16c-.31,2.82,1.16,5.26,3.27,5.45l.51,0c1.07.1,2.19-2.15,2.5-5S106.3,180.34,105.23,180.25Z" transform="translate(4.33 13.87)"/><path class="cls-53" d="M104.11,185.31c-.22,2.07-1.25,3.67-2.29,3.58s-1.7-1.84-1.48-3.91,1.25-3.67,2.29-3.58S104.34,183.24,104.11,185.31Z" transform="translate(4.33 13.87)"/><path class="cls-54" d="M103,286.12l5.16-58.62a2.22,2.22,0,0,1,2.21-1.78l81-7.28a4.6,4.6,0,0,1,2.44.74c.5.4,1.07.43,1,1l-4.13,50.08a2.07,2.07,0,0,1-1.8,1.71l-84,15.47Z" transform="translate(4.33 13.87)"/><path class="cls-11" d="M104.85,287.43l5.35-59a2.22,2.22,0,0,1,2.2-1.78l80.68-7.33a2.63,2.63,0,0,1,1.84.52,1.82,1.82,0,0,1,.73,1.51L192.38,271a2,2,0,0,1-1.82,1.73Z" transform="translate(4.33 13.87)"/><path class="cls-11" d="M104.85,287.43l85.71-14.69a2,2,0,0,0,1.82-1.73l1-14.87c-24.09,11.2-55.87,13-87.32,18.12Z" transform="translate(4.33 13.87)"/><path class="cls-8" d="M149.09,293.51l-3,1.41-15.48-7.71c-.14-.08-.75-.82,0-1,4-1.07,18.91-3,18.91-3L157,287.3Z" transform="translate(4.33 13.87)"/><path class="cls-54" d="M149.1,292.51l-3,1.41-15.48-7.73c-.89-.45,18.92-4,18.92-4l7.54,4.1Z" transform="translate(4.33 13.87)"/><path class="cls-8" d="M164.39,251s6.5,35.83,7.2,37.83c.64,1.84-19.42,5.67-24.33,6.31a2.79,2.79,0,0,1-1.21-.26c-1.41,0,5.6-42.31,5.6-42.31l.48,0Z" transform="translate(4.33 13.87)"/><path class="cls-55" d="M164.39,251s7.71,36.07,8.41,38.07-23.31,5.91-25.48,6.05c-1.4,0,4.81-42.58,4.81-42.58Z" transform="translate(4.33 13.87)"/></g><path class="cls-56" d="M175.15,153.57l1.25,46.6a6.15,6.15,0,0,0,10.14,4.62l35.33-26.34a6.39,6.39,0,0,0-1.33-10.66L184,147.52A6.31,6.31,0,0,0,175.15,153.57Z" transform="translate(4.33 13.87)"/><path class="cls-8" d="M283.08,159.71c0,2.28,2.64,7.68,4.51,11.21a2,2,0,0,0,3.61.12c1.89-3.42,4.58-8.71,4.58-11a6.58,6.58,0,0,0-6.39-6.58A6.2,6.2,0,0,0,283.08,159.71Zm2.91.07a3.33,3.33,0,0,1,3.4-3.37,3.53,3.53,0,0,1,3.42,3.53,3.33,3.33,0,0,1-3.42,3.37A3.53,3.53,0,0,1,286,159.78Z" transform="translate(4.33 13.87)"/><path class="cls-11" d="M311.46,246.44a4,4,0,0,1-3.84,3.95L60,258.17a3.56,3.56,0,0,1-3.66-3.63,3.91,3.91,0,0,1,1.07-2.68A3.74,3.74,0,0,1,60,250.68l247.61-8A3.69,3.69,0,0,1,311.46,246.44Z" transform="translate(4.33 13.87)"/><path class="cls-57" d="M203.13,246.08v7.6L60,258.17a3.55,3.55,0,0,1-3.65-3.63,3.91,3.91,0,0,1,1.07-2.68A3.7,3.7,0,0,1,60,250.68Z" transform="translate(4.33 13.87)"/><path class="cls-58" d="M206.12,250a6.24,6.24,0,0,1-6,6.26l-2.58.08a5.76,5.76,0,0,1-5.93-5.89V248a6.26,6.26,0,0,1,6-6.26l2.49-.09a5.81,5.81,0,0,1,6,5.89Z" transform="translate(4.33 13.87)"/><path class="cls-59" d="M315.3,227.27c-3-3.17,5.25-15.07,9.65-20.28,3.84-4.56,7.79-9.24,12.63-8.65,4.26.52,8.4,5,8.65,9.31C346.9,219.22,319.52,231.77,315.3,227.27Z" transform="translate(4.33 13.87)"/><path class="cls-60" d="M350.93,349.56c.56.46.66,1.59.73,2.33a1.73,1.73,0,0,1,0,.62c-.26.85-1.92.94-4.51,1.2-4.1.42-5.32.74-5.64.13s.42-1.5.51-1.61a3.83,3.83,0,0,1,2-1.1c1.94-.63,3.24-1,3.64-1.09C350.15,349.38,350.56,349.26,350.93,349.56Z" transform="translate(4.33 13.87)"/><path class="cls-61" d="M348.49,345.82l-.41,4.67a2.56,2.56,0,0,0,2.61.32l1.05-4.59Z" transform="translate(4.33 13.87)"/><path class="cls-62" d="M318.42,349a2.31,2.31,0,0,1,.24,2.77c-.57.66-1.43.17-3.87.24-2.62.08-3.3.7-5.07.21-.72-.2-2-.68-2-1.2,0-.36.66-.54,2.81-1.26a27.53,27.53,0,0,1,3.7-1.19C315.9,348.26,317.54,348,318.42,349Z" transform="translate(4.33 13.87)"/><path class="cls-63" d="M316.75,344.7l-1.31,4.36a2.54,2.54,0,0,0,2.57.52l1.95-4.23Z" transform="translate(4.33 13.87)"/><path class="cls-64" d="M328.39,249.2a406.66,406.66,0,0,1-3.58,49A411.63,411.63,0,0,1,315.49,346l5,1.35a42.52,42.52,0,0,0,12.18-19c1.61-5.46,1.07-8.27,2.09-15,1.62-10.7,4.9-16.3,8.29-24.93a142.23,142.23,0,0,0,8.57-34.34Z" transform="translate(4.33 13.87)"/><path class="cls-65" d="M343.49,247.8q1.53,28,2.5,56.94.72,21.75,1.07,42.94l5.12.64a59.38,59.38,0,0,0,5.35-13.8c1.82-7.31,1.4-11.66,2.2-19.24.9-8.5,2.2-10.35,4.51-21.08,4.69-21.77,7-32.65,1.81-39.43C364.35,252.58,359,247.06,343.49,247.8Z" transform="translate(4.33 13.87)"/><path class="cls-66" d="M368.39,201a79.53,79.53,0,0,0-17.05-2.84c-10.24-.58-15.36-.87-19,1.57-8.38,5.63-1.89,18.63-5.32,50.87-.49,4.6-.6,9.23-1,13.85-.58,7.64-.72,8.06-.19,8.83,3.34,4.86,15.78-2.47,34,.43,10.2,1.62,14.83,5.35,17.62,2.66,3.26-3.14.47-11.59-1.94-18.85-2.76-8.35-4.47-8.45-6-14.74-1.64-6.56-.64-9.95-.39-20.3A183.16,183.16,0,0,0,368.39,201Z" transform="translate(4.33 13.87)"/><g class="cls-67"><path class="cls-68" d="M343.6,261.46c4.76-.37,7.85,2.33,12,.23,5.64-2.88,7.45-11.84,7.09-18.18-.54-9.63-6.05-12.17-5.1-18.4.52-3.37,2.92-7.84,11.55-12.41.12,3.85.09,7.12,0,9.73-.25,10.35-1.25,13.74.39,20.3,1.57,6.29,3.28,6.39,6,14.74,2.41,7.26,5.2,15.71,1.94,18.85-2.79,2.69-7.42-1-17.62-2.66-15.71-2.5-27.11,2.59-32.1.94C333.82,264.64,339.28,261.8,343.6,261.46Z" transform="translate(4.33 13.87)"/></g><path class="cls-69" d="M361.89,201.62c3.4-2.8,10.25.36,12.08,1.21,10.2,4.72,19.36,17.44,17.09,30.87-.34,2-1.92,11.45-9.9,16-7.2,4.12-16.93,3.06-24.72-2.77l-3.2-2.84-3.14-3.39a25.25,25.25,0,0,1,8.37-4.62c5.19-1.67,9,1.33,11.36-1,1.66-1.58,1.66-4.36,1.25-6-.82-3.4-3.81-4.35-6.31-6.76C358.9,216.68,357.82,205,361.89,201.62Z" transform="translate(4.33 13.87)"/><polygon class="cls-70" points="317.31 259.36 362.93 258.68 350.8 264.53 317.19 262.33 317.31 259.36"/><path class="cls-71" d="M360.21,246h0a2,2,0,0,1-1.34,1.9l-14.57,5.72-.07-4,14.37-4.88A1.27,1.27,0,0,1,360.21,246Z" transform="translate(4.33 13.87)"/><path class="cls-72" d="M353.18,243.32c.28-.07-1.36-3.34-2.65-3s-7.6,4-8.18,5.54l-.57,1.51a14.26,14.26,0,0,0,4.46-.36C348,246.47,350.91,243.82,353.18,243.32Z" transform="translate(4.33 13.87)"/><path class="cls-73" d="M343,221.88l3.21,29.28a2.74,2.74,0,0,1-2.31,2.46l-47.18-2.89a1.66,1.66,0,0,1-1.55-1.37l-5.92-28.28c-.18-1,1.67-2.09,2.72-2.06l49.43,1.39A1.65,1.65,0,0,1,343,221.88Z" transform="translate(4.33 13.87)"/><path class="cls-74" d="M341.94,222.73,345.16,252a1.65,1.65,0,0,1-1.73,1.83l-47.77-2.26a1.64,1.64,0,0,1-1.55-1.37l-4.88-28.41a1.66,1.66,0,0,1,1.68-1.93l49.43,1.39A1.65,1.65,0,0,1,341.94,222.73Z" transform="translate(4.33 13.87)"/><path class="cls-75" d="M313.89,244.72c4.17-1.77,2.7-5.14,7.62-9.34,6.5-5.54,13.13-3.14,15.44-7.43.73-1.34,1.07-3.42-.19-6.79l3.58.1a1.65,1.65,0,0,1,1.6,1.47L345.16,252a1.65,1.65,0,0,1-1.73,1.83l-47.77-2.26a1.64,1.64,0,0,1-1.55-1.37l-.67-3.92a18,18,0,0,1,5.2-1.95C305.65,242.92,309.09,246.76,313.89,244.72Z" transform="translate(4.33 13.87)"/><path class="cls-76" d="M292.66,247.49A.36.36,0,0,1,293,247c1-.06,3.35-.08,4.64.72,1.68,1,3.85,2.9,2,3.85l-1.71.88a.36.36,0,0,1-.25,0c-.61-.14-3.16-.7-3.44-.84A25.75,25.75,0,0,1,292.66,247.49Z" transform="translate(4.33 13.87)"/><path class="cls-77" d="M350.58,186.92a35.25,35.25,0,0,0,.63,7.09c.37,1.89.64,2.38,1,2.77.51.6,1.28,1.1,5.63,2.18,2.37.59,2.67.57,2.73.81.25,1.14-6.2,5-12.88,4.11-4.08-.58-7.79-2.91-7.56-4.13s4.3-.57,5.52-2.8c.84-1.55-.1-3.75-1.22-5.57C345.48,189.35,349.49,189,350.58,186.92Z" transform="translate(4.33 13.87)"/><path class="cls-78" d="M343,188.12a4.31,4.31,0,0,1,.09-4.93,4.69,4.69,0,0,1,3.36-1.49c2.61-.3,5.9.79,7,3.19.68,1.42-.79,4.37-1,4.91s-.73.8-1.16,1.26c-.61.63-1.56,1.63-3.1,3.3a11,11,0,0,0-.59-1.77,9.79,9.79,0,0,0-1.24-2.07C345,188.86,343.92,189.33,343,188.12Z" transform="translate(4.33 13.87)"/><path class="cls-79" d="M350.41,193a5.83,5.83,0,0,1-5.13,2.59c-3-.2-3.5-7.06-1.55-8.51a3.83,3.83,0,0,1,3-.39c.63.17.84.43,1.87.7s1.21.14,1.5.38.62,1.05,0,3.05a1.66,1.66,0,0,1,1.78-.58,1,1,0,0,1,.41.39C352.76,191.38,352,192.38,350.41,193Z" transform="translate(4.33 13.87)"/></g></g></g></svg>