<svg xmlns="http://www.w3.org/2000/svg" viewBox="0 0 404.89 392.63"><defs><style>.cls-1{fill:#f0f0f0;}.cls-2{fill:#e1e1e1;}.cls-3{fill:#00dfbf;}.cls-4{opacity:0.6;}.cls-5{opacity:0.3;}.cls-14,.cls-16,.cls-6{opacity:0.5;}.cls-7{fill:#1a2e35;}.cls-18,.cls-8{opacity:0.7;}.cls-12,.cls-18,.cls-24,.cls-9{fill:#fff;}.cls-9{opacity:0.4;}.cls-10{opacity:0.1;}.cls-11{fill:#fafafa;}.cls-13{fill:#e7e7e7;}.cls-14,.cls-17{fill:#375a64;}.cls-15{fill:none;stroke:#e1e1e1;stroke-miterlimit:10;stroke-width:0.75px;}.cls-19{fill:#f5f5f5;}.cls-20{fill:#ececec;}.cls-21,.cls-24{opacity:0.2;}.cls-22{fill:#ffaaa8;}.cls-23{fill:#ff9090;}.cls-25{fill:#c76668;}.cls-26{fill:#2b454e;}.cls-27{fill:#b0494c;}.cls-28{opacity:0.15;}</style></defs><g id="Layer_2" data-name="Layer 2"><g id="Layer_1-2" data-name="Layer 1"><ellipse id="Floor" class="cls-1" cx="202.45" cy="275.75" rx="202.45" ry="116.88"/><path id="Shadow" class="cls-2" d="M48.7,317.37,13.78,297.21c-2-1.14-2-3,0-4.12L216.9,175.82a7.86,7.86,0,0,1,7.13,0L259,196c2,1.14,2,3,0,4.12L55.83,317.37A7.92,7.92,0,0,1,48.7,317.37Z"/><polygon id="Shadow-2" data-name="Shadow" class="cls-2" points="198.8 325.71 114.94 277.29 219.75 216.89 303.51 265.25 198.8 325.71"/><ellipse id="Shadow-3" data-name="Shadow" class="cls-2" cx="314.6" cy="324.41" rx="39.65" ry="22.89"/><path id="Shadow-4" data-name="Shadow" class="cls-2" d="M367.79,296.84c4.3,2.49,4.3,6.51,0,9a17.2,17.2,0,0,1-15.56,0c-4.3-2.48-4.3-6.5,0-9A17.2,17.2,0,0,1,367.79,296.84Z"/><g id="Device"><path class="cls-3" d="M174.22,281.43l30-17.35c3.1-1.79,4.64-4.13,4.64-6.47s0-4.18,0-4.18l-31.15-17.56a6.6,6.6,0,0,1-3-5.18v-37L122.33,224v37a6.61,6.61,0,0,0,3,5.18l26.5,15.27C158,285,168,285,174.22,281.43Z"/><g class="cls-4"><path d="M174.22,281.43l30-17.35c3.1-1.79,4.64-4.13,4.64-6.47s0-4.18,0-4.18l-31.15-17.56a6.6,6.6,0,0,1-3-5.18v-37L122.33,224v37a6.61,6.61,0,0,0,3,5.18l26.5,15.27C158,285,168,285,174.22,281.43Z"/></g><path class="cls-5" d="M134.91,267.55v4.15l-9.61-5.53a6.65,6.65,0,0,1-3-5.18V224l10-5.76c.21,2.54.43,5.16.64,7.71l-7,4.06V258.9a6.56,6.56,0,0,0,3,5.18Z"/><path class="cls-3" d="M125.94,258.91a6.6,6.6,0,0,0,3,5.17l22.87,13.18c6.19,3.57,16.23,3.57,22.42,0l30-17.35c6.19-3.57,6.19-9.37,0-12.94l-22.89-13.19a6.6,6.6,0,0,1-3-5.17V199.69L125.94,230Z"/><path class="cls-5" d="M125.94,258.91a6.6,6.6,0,0,0,3,5.17l22.87,13.18c6.19,3.57,16.23,3.57,22.42,0l30-17.35c6.19-3.57,6.19-9.37,0-12.94l-22.89-13.19a6.6,6.6,0,0,1-3-5.17V199.69L125.94,230Z"/><path class="cls-6" d="M187.45,237.3h0l-6.08-3.52a6.6,6.6,0,0,1-3-5.17V199.69L125.94,230v28.92a6.6,6.6,0,0,0,3,5.17l6,3.46Z"/><path class="cls-3" d="M208.89,253.44v4.17c0,2.35-1.55,4.68-4.64,6.47l-30,17.35a22.38,22.38,0,0,1-10.69,2.65v-4.15a22.39,22.39,0,0,0,10.69-2.66l30-17.37C207.34,258.13,208.89,255.78,208.89,253.44Z"/><path class="cls-6" d="M208.89,253.44v4.17c0,2.35-1.55,4.68-4.64,6.47l-30,17.35a22.38,22.38,0,0,1-10.69,2.65v-4.15a22.39,22.39,0,0,0,10.69-2.66l30-17.37C207.34,258.13,208.89,255.78,208.89,253.44Z"/><path class="cls-3" d="M41.75,294.85a8,8,0,0,0,7.24-.13L251.77,177.65a8.27,8.27,0,0,0,3.74-6.47V7.14A8,8,0,0,0,252,.8a8,8,0,0,0-7.24.13L42,118a8.23,8.23,0,0,0-3.74,6.47v164A8,8,0,0,0,41.75,294.85Z"/><path class="cls-3" d="M49,294.72,251.77,177.64a8.26,8.26,0,0,0,3.74-6.47V7.13c0-2.38-1.68-3.35-3.74-2.15L49,122.05a8.24,8.24,0,0,0-3.74,6.47v164C45.26,294.94,46.93,295.91,49,294.72Z"/><path class="cls-6" d="M49,294.72,251.77,177.64a8.26,8.26,0,0,0,3.74-6.47V7.13c0-2.38-1.68-3.35-3.74-2.15L49,122.05a8.24,8.24,0,0,0-3.74,6.47v164C45.26,294.94,46.93,295.91,49,294.72Z"/><path class="cls-3" d="M48.44,299a8,8,0,0,1-6.69-.14,8,8,0,0,1-3.5-6.35V277.56l7,4.05v14.94C45.25,298.72,46.63,299.71,48.44,299Z"/><path class="cls-6" d="M48.44,299a8,8,0,0,1-6.69-.14,8,8,0,0,1-3.5-6.35V277.56l7,4.05v14.94C45.25,298.72,46.63,299.71,48.44,299Z"/><path class="cls-3" d="M45.25,281.61v14.93c0,2.38,1.67,3.35,3.73,2.16L251.77,181.63a8.27,8.27,0,0,0,3.74-6.47v-15Z"/><path class="cls-5" d="M45.26,281.58v15c0,2.38,1.67,3.35,3.73,2.16L251.77,181.63a8.27,8.27,0,0,0,3.74-6.47v-15Z"/><path class="cls-3" d="M52.26,262.87v-132A5,5,0,0,1,54.51,127L246.25,16.26c1.24-.72,2.24-.14,2.24,1.29v132a4.94,4.94,0,0,1-2.24,3.88L54.5,264.17C53.27,264.88,52.26,264.3,52.26,262.87Z"/><path class="cls-7" d="M52.26,262.87v-132A5,5,0,0,1,54.51,127L246.25,16.26c1.24-.72,2.24-.14,2.24,1.29v132a4.94,4.94,0,0,1-2.24,3.88L54.5,264.17C53.27,264.88,52.26,264.3,52.26,262.87Z"/><path class="cls-8" d="M46.36,124.82a7.91,7.91,0,0,0-1.11,3.69v153.1l-7-4.05V124.48a7.74,7.74,0,0,1,1.1-3.69Z"/><path class="cls-5" d="M255.47,6.52c-.27-1.93-1.82-2.63-3.7-1.55L49,122.05a7.7,7.7,0,0,0-2.64,2.78l-7-4A7.66,7.66,0,0,1,42,118L244.76.94A8,8,0,0,1,252,.8,8.07,8.07,0,0,1,255.47,6.52Z"/></g><g id="Window"><path class="cls-3" d="M67.92,156.12A4,4,0,0,1,66.18,153V138.44A4.1,4.1,0,0,1,68,135.22L258.9,25a4,4,0,0,1,3.6-.07,4,4,0,0,1,1.75,3.16V42.62a4.09,4.09,0,0,1-1.86,3.22L71.53,156.05A4,4,0,0,1,67.92,156.12Z"/><path class="cls-9" d="M264.23,27.8c-.13-1-.91-1.32-1.84-.78L71.53,137.23a3.93,3.93,0,0,0-1.32,1.39l-3.49-2A3.9,3.9,0,0,1,68,135.22L258.9,25a4,4,0,0,1,3.6-.07A4,4,0,0,1,264.23,27.8Z"/><path class="cls-1" d="M71.53,274.26a3.17,3.17,0,0,1-1.47.44,3.69,3.69,0,0,1-2.14-.37,4,4,0,0,1-1.74-3.16V160.47l3.5,2v110.7c0,.84.42,1.32,1,1.32A1.78,1.78,0,0,0,71.53,274.26Z"/><path class="cls-10" d="M70.21,138.62a3.86,3.86,0,0,0-.54,1.83v22l-3.5-2v-22c0-.08,0-.15,0-.22a3.29,3.29,0,0,1,.08-.47,4.32,4.32,0,0,1,.46-1.15Z"/><path class="cls-3" d="M264.25,28.1V38l-136.88,79c-1,.59-1.86.11-1.86-1.07v-3.77c0-1.18-.83-1.66-1.86-1.07L78.51,137.23a4.11,4.11,0,0,0-1.86,3.22v3.77a4.15,4.15,0,0,1-1.86,3.22l-5.12,2.95v-9.94a4.11,4.11,0,0,1,1.86-3.22L262.39,27C263.41,26.43,264.25,26.91,264.25,28.1Z"/><path class="cls-11" d="M70.7,274c-.48,0-.53-.58-.53-.82V150.68L75,147.87c.63-.36,1.09-1.84,2.08-5.38.5-1.79,1.26-4.5,1.66-4.84l44.28-25.57a13,13,0,0,1,1.64,2.52c1.1,1.93,1.76,3,2.53,3a.77.77,0,0,0,.39-.11l136.13-78.6V160.83a3.62,3.62,0,0,1-1.61,2.79L71.28,273.83A1.24,1.24,0,0,1,70.7,274Z"/><path class="cls-2" d="M263.25,39.77V160.83a3.12,3.12,0,0,1-1.36,2.36L71,273.4a.93.93,0,0,1-.3.11.77.77,0,0,1,0-.32V151l4.62-2.67c.79-.46,1.24-1.84,2.32-5.68a29.76,29.76,0,0,1,1.5-4.58L123,112.72a23.14,23.14,0,0,1,1.31,2.12c1.22,2.16,1.91,3.28,3,3.28a1.33,1.33,0,0,0,.64-.17L263.25,39.77m-139.86,72.7h0M264.25,38l-136.88,79a.25.25,0,0,1-.14,0c-1,0-3.15-5.55-4.2-5.55a.35.35,0,0,0-.14,0L78.51,137.23c-1,.59-2.7,9.61-3.72,10.21l-5.12,2.95v122.8c0,.84.42,1.32,1,1.32a1.7,1.7,0,0,0,.83-.25L262.39,164.05a4.09,4.09,0,0,0,1.86-3.22V38Z"/><path class="cls-1" d="M102.32,204.08l25.43-14.69c.69-.39,1.24-.07,1.24.72v42.83a2.74,2.74,0,0,1-1.24,2.15l-25.43,14.68c-.69.4-1.24.08-1.24-.71V206.23A2.74,2.74,0,0,1,102.32,204.08Z"/><path class="cls-2" d="M107,206.77l16.13-9.32c.69-.39,1.24-.11,1.24.63a2.66,2.66,0,0,1-1.24,2.06L107,209.45c-.69.4-1.24.12-1.24-.62A2.65,2.65,0,0,1,107,206.77Z"/><path class="cls-3" d="M105.73,213.71v1c0,.48.33.67.74.43l.84-.48a1.67,1.67,0,0,0,.75-1.29v-1c0-.47-.34-.67-.75-.43l-.84.49A1.62,1.62,0,0,0,105.73,213.71Z"/><path class="cls-2" d="M110.38,211.51c0,.74.56,1,1.24.63l11.48-6.63a2.64,2.64,0,0,0,1.24-2.06c0-.74-.55-1-1.24-.62l-11.48,6.62A2.68,2.68,0,0,0,110.38,211.51Z"/><path class="cls-3" d="M105.73,219.09v1c0,.48.33.67.74.43l.84-.48a1.67,1.67,0,0,0,.75-1.29v-1c0-.48-.34-.67-.75-.43l-.84.48A1.66,1.66,0,0,0,105.73,219.09Z"/><path class="cls-2" d="M110.38,216.89c0,.74.56,1,1.24.63l11.48-6.63a2.66,2.66,0,0,0,1.24-2.06c0-.74-.55-1-1.24-.63l-11.48,6.63A2.68,2.68,0,0,0,110.38,216.89Z"/><path class="cls-3" d="M105.73,224.46v1c0,.47.33.67.74.43l.84-.48a1.67,1.67,0,0,0,.75-1.29v-1c0-.48-.34-.67-.75-.43l-.84.48A1.66,1.66,0,0,0,105.73,224.46Z"/><path class="cls-2" d="M110.38,222.26c0,.74.56,1,1.24.63l11.48-6.63a2.66,2.66,0,0,0,1.24-2.06c0-.74-.55-1-1.24-.63l-11.48,6.63A2.68,2.68,0,0,0,110.38,222.26Z"/><path class="cls-3" d="M105.73,229.83v1c0,.47.33.66.74.43l.84-.49a1.65,1.65,0,0,0,.75-1.29v-1c0-.47-.34-.66-.75-.42l-.84.48A1.64,1.64,0,0,0,105.73,229.83Z"/><path class="cls-2" d="M110.38,227.63c0,.74.56,1,1.24.62l11.48-6.62a2.66,2.66,0,0,0,1.24-2.06c0-.74-.55-1-1.24-.63l-11.48,6.63A2.65,2.65,0,0,0,110.38,227.63Z"/><path class="cls-2" d="M106.87,236.37,123,227.06c.69-.4,1.24-.12,1.24.62a2.63,2.63,0,0,1-1.24,2.06l-16.13,9.32c-.68.39-1.24.11-1.24-.63A2.68,2.68,0,0,1,106.87,236.37Z"/><path class="cls-3" d="M105.63,243.32v1c0,.47.33.66.75.43l.83-.49a1.63,1.63,0,0,0,.75-1.29v-1c0-.47-.34-.66-.75-.42l-.83.48A1.63,1.63,0,0,0,105.63,243.32Z"/><path class="cls-2" d="M110.28,241.12c0,.74.56,1,1.24.62L123,235.12a2.66,2.66,0,0,0,1.24-2.06c0-.74-.55-1-1.24-.63l-11.48,6.63A2.65,2.65,0,0,0,110.28,241.12Z"/><path class="cls-12" d="M255.52,34.33c1.3-.74,2.35-.14,2.35,1.35a5.17,5.17,0,0,1-2.35,4.06c-1.29.74-2.34.14-2.34-1.35A5.19,5.19,0,0,1,255.52,34.33Z"/><path class="cls-12" d="M247.1,39.19c1.29-.75,2.34-.14,2.34,1.35a5.19,5.19,0,0,1-2.34,4.06c-1.3.74-2.34.14-2.34-1.35A5.16,5.16,0,0,1,247.1,39.19Z"/><ellipse class="cls-12" cx="238.67" cy="46.75" rx="3.31" ry="1.91" transform="translate(78.85 230.07) rotate(-60)"/><path class="cls-13" d="M264.25,38v12.1L69.67,162.49v-12.1l3.82-2.21c1-.59,1.37-1.5,1.86-3.22l1.3-4.51c.41-1.56.83-2.63,1.86-3.22l44.38-25.63c1-.59,1.84-.65,2.62.64l1.59,2.89c.59,1,.88,1.6,1.9,1Z"/><polygon class="cls-2" points="69.67 150.39 69.67 162.49 66.17 160.47 66.17 148.38 69.67 150.39"/><path class="cls-14" d="M78.2,151.27,75.28,153l1.12-2.14a.56.56,0,0,0,0-.52c-.09-.1-.24,0-.33.15l-1.59,3.05h0a.56.56,0,0,0,0,.12l0,0a1,1,0,0,0,0,.16.44.44,0,0,0,0,.13l0,0,0,.06h0l1.59,1.21a.11.11,0,0,0,.15,0,.41.41,0,0,0,.18-.22.5.5,0,0,0,0-.5l-1.12-.85L78.2,152a.64.64,0,0,0,.24-.5C78.44,151.29,78.33,151.19,78.2,151.27Z"/><path class="cls-14" d="M80.64,149.86l2.92-1.69-1.11-.85a.46.46,0,0,1,0-.5c.08-.2.23-.3.33-.23l1.58,1.22h0a.15.15,0,0,1,0,.06s0,0,0,0a.3.3,0,0,1,0,.14.39.39,0,0,1,0,.15s0,0,0,0,0,.08,0,.11h0l-1.58,3.05a.41.41,0,0,1-.16.18.12.12,0,0,1-.17,0,.51.51,0,0,1,0-.52l1.11-2.15-2.92,1.69c-.13.08-.23,0-.23-.23A.59.59,0,0,1,80.64,149.86Z"/><path class="cls-14" d="M90.22,141.45c0-.18-.17-.16-.25,0l-.4,1c-.68-.07-1.51.59-2.06,1.78-.73,1.53-.73,3.34,0,4a1,1,0,0,0,1.31.07,3.54,3.54,0,0,0,1.31-1.59.51.51,0,0,0,0-.51c-.09-.09-.24,0-.33.19-.54,1.14-1.42,1.65-2,1.13s-.54-1.87,0-3c.38-.82.94-1.3,1.42-1.33L89,144c-.08.19,0,.37.11.29l1.19-.78a.38.38,0,0,0,.14-.33Z"/><path class="cls-14" d="M121.61,117.13l1.07-2.26a.71.71,0,0,0,0-.7c-.13-.12-.33,0-.46.26l-1.06,2.26-1.07-1c-.12-.12-.33,0-.45.27a.66.66,0,0,0,0,.7l1.06,1-1.06,2.26a.66.66,0,0,0,0,.7.17.17,0,0,0,.22,0,.57.57,0,0,0,.23-.27l1.07-2.26,1.06,1a.18.18,0,0,0,.23,0,.68.68,0,0,0,.23-.28.71.71,0,0,0,0-.7Z"/><path class="cls-11" d="M94.1,144.22v-3.77A4.11,4.11,0,0,1,96,137.23l156-90c1-.59,1.86-.11,1.86,1.07v3.77a4.11,4.11,0,0,1-1.86,3.22l-156,90C94.93,145.89,94.1,145.4,94.1,144.22Z"/><path class="cls-15" d="M250.83,49.21l.49,1a.12.12,0,0,0,.16.06l1.09-.42c.18-.07.25.18.12.41l-.79,1.49a.49.49,0,0,0-.06.28l.19,1.35c0,.21-.15.49-.31.47l-1-.12a.22.22,0,0,0-.19.11l-1,1.25c-.16.2-.34.13-.31-.12l.19-1.56c0-.1,0-.18-.06-.21l-.79-.57c-.13-.09-.06-.42.11-.55l1.1-.84A.54.54,0,0,0,250,51l.48-1.6C250.53,49.17,250.76,49,250.83,49.21Z"/><g class="cls-16"><path class="cls-17" d="M256,46.76a.66.66,0,0,1-.56-.32.65.65,0,0,1,.24-.88l5.24-3a.64.64,0,0,1,.88.23.65.65,0,0,1-.24.88l-5.24,3A.62.62,0,0,1,256,46.76Z"/><path class="cls-17" d="M256,49.78a.64.64,0,0,1-.56-.32.65.65,0,0,1,.24-.88l5.24-3a.64.64,0,1,1,.64,1.11l-5.24,3A.61.61,0,0,1,256,49.78Z"/><path class="cls-17" d="M256,52.81a.66.66,0,0,1-.56-.32.65.65,0,0,1,.24-.88l5.24-3a.64.64,0,0,1,.88.24.65.65,0,0,1-.24.88l-5.24,3A.62.62,0,0,1,256,52.81Z"/></g><polygon class="cls-17" points="69.67 162.49 69.66 174.57 264.23 62.24 264.25 50.14 69.67 162.49"/><path class="cls-11" d="M91.46,154.79v2.33c0,.48.33.68.75.44l29.23-16.89V136.6L92.22,153.49A1.64,1.64,0,0,0,91.46,154.79Z"/><path class="cls-3" d="M125.4,134.31c.42-.24.75,0,.75.44v2.33a1.66,1.66,0,0,1-.75,1.31l-4,2.28V136.6Z"/><path class="cls-11" d="M125.11,137.52l-.44-.14a2.78,2.78,0,0,0,.07-.57,1.05,1.05,0,0,0-.4-.94.64.64,0,0,0-.65,0,2.27,2.27,0,0,0-.88,1.83,1,1,0,0,0,.41,1,.53.53,0,0,0,.28.07.65.65,0,0,0,.36-.11,1.83,1.83,0,0,0,.71-.95l.44.14h0a.18.18,0,0,0,.16-.12A.16.16,0,0,0,125.11,137.52Zm-1.42.84a.3.3,0,0,1-.31,0c-.15-.08-.24-.33-.24-.66a1.94,1.94,0,0,1,.72-1.54.35.35,0,0,1,.2-.07.2.2,0,0,1,.11,0,.77.77,0,0,1,.24.66A2,2,0,0,1,123.69,138.36Z"/><path class="cls-11" d="M86.36,156.88l-2,1.15a1.65,1.65,0,0,0-.75,1.29v2.31c0,.47.34.67.75.43l2-1.15a1.64,1.64,0,0,0,.75-1.29v-2.31C87.11,156.83,86.78,156.64,86.36,156.88Z"/><path class="cls-3" d="M155.64,115.89a5.9,5.9,0,0,0-2.66,4.62c0,1.7,1.19,2.39,2.66,1.54a5.88,5.88,0,0,0,2.67-4.62C158.31,115.73,157.11,115,155.64,115.89Z"/><path class="cls-12" d="M155.33,118.6a.46.46,0,0,1-.23-.06.56.56,0,0,1-.26-.53,1.54,1.54,0,0,1,.7-1.22h0a.58.58,0,0,1,.59,0,.56.56,0,0,1,.26.53,1.54,1.54,0,0,1-.7,1.22A.76.76,0,0,1,155.33,118.6Z"/><path class="cls-12" d="M156.7,118.78a.92.92,0,0,0-.94.07l-.39.23a2.62,2.62,0,0,0-1.2,2.08v.27a1.49,1.49,0,0,0,1.47-.16,4.22,4.22,0,0,0,1.48-1.54v-.07A1,1,0,0,0,156.7,118.78Z"/><path class="cls-2" d="M161.74,113.82,180,103.28c.74-.43,1.34-.1,1.34.72a2.9,2.9,0,0,1-1.34,2.27l-18.26,10.55c-.74.42-1.34.1-1.34-.73A2.89,2.89,0,0,1,161.74,113.82Z"/><path class="cls-2" d="M189.62,97.75,201,91.15c.74-.43,1.34-.1,1.34.72A2.9,2.9,0,0,1,201,94.14l-11.33,6.61c-.74.42-1.34.1-1.34-.73A2.93,2.93,0,0,1,189.62,97.75Z"/><path class="cls-2" d="M210.59,85.71l7.81-4.54c.74-.43,1.34-.11,1.34.72a2.91,2.91,0,0,1-1.34,2.27l-7.81,4.54c-.74.43-1.34.1-1.34-.72A2.9,2.9,0,0,1,210.59,85.71Z"/><path class="cls-7" d="M184.84,104.37a.32.32,0,0,1-.32-.32v-4a.32.32,0,0,1,.64,0v4A.32.32,0,0,1,184.84,104.37Z"/><path class="cls-7" d="M205.78,92.28a.32.32,0,0,1-.32-.32v-4a.32.32,0,0,1,.64,0v4A.32.32,0,0,1,205.78,92.28Z"/><path class="cls-7" d="M223.23,82.21a.32.32,0,0,1-.32-.32v-4a.32.32,0,1,1,.64,0v4A.32.32,0,0,1,223.23,82.21Z"/><path class="cls-3" d="M229.94,76v-.74c0-.84-.51-1.23-1.14-.87h0a2.75,2.75,0,0,0-1.15,2.2v.66a2.61,2.61,0,0,1-.39,1.29h0a.67.67,0,0,0-.09.34h0c0,.21.13.31.29.21l2.68-1.54a.71.71,0,0,0,.29-.56h0a.28.28,0,0,0-.09-.22h0A.8.8,0,0,1,229.94,76Z"/><path class="cls-3" d="M229.35,78.23a1.31,1.31,0,0,1-.55,1c-.31.18-.56,0-.56-.41Z"/><path class="cls-3" d="M234.85,72.75a.6.6,0,0,1-.27-.07.69.69,0,0,1-.29-.61,1.73,1.73,0,0,1,.8-1.37h0a.64.64,0,0,1,.66,0,.65.65,0,0,1,.29.6,1.75,1.75,0,0,1-.79,1.38A.8.8,0,0,1,234.85,72.75Z"/><path class="cls-3" d="M236.39,73a1,1,0,0,0-1.06.08l-.44.25a3,3,0,0,0-1.35,2.34v.31a1.68,1.68,0,0,0,1.66-.17A4.8,4.8,0,0,0,236.86,74v-.08A1.08,1.08,0,0,0,236.39,73Z"/><path class="cls-3" d="M237,70.76a.6.6,0,0,1-.27-.07.66.66,0,0,1-.29-.61,1.74,1.74,0,0,1,.79-1.37h0a.66.66,0,0,1,.67,0,.65.65,0,0,1,.29.6,1.75,1.75,0,0,1-.79,1.38A.83.83,0,0,1,237,70.76Z"/><path class="cls-3" d="M238.52,71a1,1,0,0,0-1.06.07l-.43.26a2.76,2.76,0,0,0-1.11,1.31,1,1,0,0,1,.93,0,1.09,1.09,0,0,1,.48,1v.19A4.8,4.8,0,0,0,239,72V72A1.08,1.08,0,0,0,238.52,71Z"/><path class="cls-3" d="M243.83,65.46a4.82,4.82,0,0,0-2.19,3.79,1.65,1.65,0,0,0,.49,1.3l-.27,1.3c0,.16.07.23.18.11l1-1.15a2.24,2.24,0,0,0,.81-.28,4.87,4.87,0,0,0,2.18-3.8C246,65.33,245,64.76,243.83,65.46Z"/><path class="cls-3" d="M254.33,59.34a1.51,1.51,0,0,1,.55-.19.71.71,0,0,1,.44.08.78.78,0,0,1,.29.35,1.41,1.41,0,0,1,.11.59,2.26,2.26,0,0,1-.06.53,3.38,3.38,0,0,1-.16.48,3.42,3.42,0,0,1-.21.43l-.21.4a3.49,3.49,0,0,0-.19.39,1.46,1.46,0,0,0-.12.39.84.84,0,0,1-.05.17.19.19,0,0,1-.09.12l-.62.36a.08.08,0,0,1-.1,0s0-.06,0-.12a1.7,1.7,0,0,1,.07-.51,2.64,2.64,0,0,1,.17-.47,4.51,4.51,0,0,1,.22-.44c.08-.15.16-.28.22-.41a3,3,0,0,0,.18-.36,1.09,1.09,0,0,0,.07-.33c0-.16,0-.25-.12-.3s-.19,0-.35.07a1,1,0,0,0-.33.3,1.73,1.73,0,0,0-.14.32c0,.1-.06.19-.08.28a.35.35,0,0,1-.13.18L253,62a.06.06,0,0,1-.08,0,.14.14,0,0,1,0-.11,2.33,2.33,0,0,1,.1-.64,4.28,4.28,0,0,1,.28-.72,3.76,3.76,0,0,1,.44-.68A2.39,2.39,0,0,1,254.33,59.34Zm.45,5.14a.35.35,0,0,1,0,.17.25.25,0,0,1-.1.12l-.64.38a.08.08,0,0,1-.1,0,.17.17,0,0,1,0-.13v-.8a.38.38,0,0,1,0-.17.25.25,0,0,1,.1-.12l.64-.37a.09.09,0,0,1,.1,0,.17.17,0,0,1,0,.13Z"/><path class="cls-3" d="M101.08,162.63v36c0,1.19.83,1.67,1.86,1.08l128-73.95a4.09,4.09,0,0,0,1.86-3.22v-36c0-1.18-.83-1.66-1.86-1.07l-128,73.94A4.12,4.12,0,0,0,101.08,162.63Z"/><path class="cls-18" d="M101.08,162.63v36c0,1.19.83,1.67,1.86,1.08l128-73.95a4.09,4.09,0,0,0,1.86-3.22v-36c0-1.18-.83-1.66-1.86-1.07l-128,73.94A4.12,4.12,0,0,0,101.08,162.63Z"/><path class="cls-3" d="M111.54,167.87a15.45,15.45,0,0,0-7,12.09c0,4.45,3.13,6.26,7,4a15.45,15.45,0,0,0,7-12.09C118.52,167.45,115.4,165.64,111.54,167.87Z"/><path class="cls-12" d="M110.73,175a1.22,1.22,0,0,1-.62-.16,1.53,1.53,0,0,1-.67-1.4,4,4,0,0,1,1.84-3.18h0a1.37,1.37,0,0,1,2.21,1.28,4,4,0,0,1-1.83,3.18A1.84,1.84,0,0,1,110.73,175Z"/><path class="cls-12" d="M114.3,175.43a2.43,2.43,0,0,0-2.46.19l-1,.58a6.86,6.86,0,0,0-3.14,5.45v.71a3.88,3.88,0,0,0,3.85-.4,11.29,11.29,0,0,0,3.86-4v-.17A2.56,2.56,0,0,0,114.3,175.43Z"/><path class="cls-17" d="M123.36,166.4l14.78-8.54c.74-.42,1.34-.16,1.34.6a2.81,2.81,0,0,1-1.34,2.15l-14.78,8.54c-.74.43-1.34.16-1.34-.6A2.81,2.81,0,0,1,123.36,166.4Z"/><path class="cls-17" d="M122.8,172.12l8.7-5c.43-.25.78-.1.78.35a1.64,1.64,0,0,1-.78,1.26l-8.7,5c-.43.25-.78.1-.78-.35A1.64,1.64,0,0,1,122.8,172.12Z"/><path class="cls-19" d="M102.94,199.75,231,125.8a4.09,4.09,0,0,0,1.86-3.22v-5.9L101.08,192.76v5.91C101.08,199.86,101.91,200.34,102.94,199.75Z"/><path class="cls-20" d="M136,178.93a.33.33,0,0,1-.33-.33v-4a.33.33,0,0,1,.33-.32.32.32,0,0,1,.32.32v4A.32.32,0,0,1,136,178.93Z"/><path class="cls-2" d="M120.36,184.23l11.33-6.6c.74-.43,1.34-.1,1.34.72a2.9,2.9,0,0,1-1.34,2.27l-11.33,6.61c-.74.42-1.34.1-1.34-.73A2.93,2.93,0,0,1,120.36,184.23Z"/><path class="cls-20" d="M156.43,167a.33.33,0,0,1-.32-.32v-4a.33.33,0,1,1,.65,0v4A.33.33,0,0,1,156.43,167Z"/><path class="cls-2" d="M140.82,172.35l11.33-6.61c.74-.43,1.34-.1,1.34.73a2.93,2.93,0,0,1-1.34,2.27l-11.33,6.6c-.74.43-1.34.1-1.34-.72A2.9,2.9,0,0,1,140.82,172.35Z"/><path class="cls-20" d="M176.89,155.15a.32.32,0,0,1-.32-.32v-4a.32.32,0,0,1,.64,0v4A.32.32,0,0,1,176.89,155.15Z"/><path class="cls-2" d="M161.28,160.46l11.33-6.61c.74-.42,1.34-.1,1.34.73a2.93,2.93,0,0,1-1.34,2.27l-11.33,6.6c-.74.43-1.34.1-1.34-.72A2.9,2.9,0,0,1,161.28,160.46Z"/><path class="cls-20" d="M197.35,143.26a.32.32,0,0,1-.32-.32v-4a.32.32,0,0,1,.64,0v4A.32.32,0,0,1,197.35,143.26Z"/><path class="cls-2" d="M181.74,148.57l11.32-6.6c.74-.43,1.34-.11,1.34.72a2.91,2.91,0,0,1-1.34,2.27l-11.32,6.6c-.74.43-1.34.11-1.34-.72A2.91,2.91,0,0,1,181.74,148.57Z"/><path class="cls-2" d="M202.19,136.68l11.33-6.6c.74-.43,1.34-.11,1.34.72a2.91,2.91,0,0,1-1.34,2.27l-11.33,6.61c-.74.42-1.34.1-1.34-.73A2.93,2.93,0,0,1,202.19,136.68Z"/></g><g id="Plants"><path class="cls-3" d="M96.58,320.36,108,313.78s7.09-20.87,5.29-40.08c-2.23-23.87-13.5-32.27-20.13-29.6S87.91,256.27,94.93,269C100.49,279.15,100.51,302.45,96.58,320.36Z"/><path class="cls-10" d="M96.58,320.36,108,313.78s7.09-20.87,5.29-40.08c-2.23-23.87-13.5-32.27-20.13-29.6S87.91,256.27,94.93,269C100.49,279.15,100.51,302.45,96.58,320.36Z"/><path class="cls-12" d="M102.07,317.74a.52.52,0,0,0,.49-.36c7.35-22.52,7.66-54.15-6.26-68.41a.51.51,0,0,0-.73,0,.52.52,0,0,0,0,.73c13.14,13.46,13.38,44.82,6,67.36a.52.52,0,0,0,.34.65A.41.41,0,0,0,102.07,317.74Z"/><path class="cls-3" d="M76.06,332.2c-1.18.68-3.62-.8-4.56-1.43a11.31,11.31,0,0,1-3.75-4.31,10.6,10.6,0,0,1-.94-6.35,24.42,24.42,0,0,1,.8-3.38c.32-1.09.63-2.19,1-3.28a8.35,8.35,0,0,0,.48-3.31c-.29-2.24-2.28-3.81-4.09-5.16-2-1.5-4.08-3.48-4.07-6.18a9.44,9.44,0,0,1,2.38-5.65c1.29-1.64,2.82-3.08,4-4.81a6.6,6.6,0,0,0,1.36-4.19,6.83,6.83,0,0,0-.91-2.62,37.83,37.83,0,0,1-2.87-5.26c-.66-1.89-.56-4.24.91-5.59a6.23,6.23,0,0,1,4.65-1.16,10.68,10.68,0,0,1,4.32,1.53c4.28,2.38,6.73,7.46,11.28,9.29a44.11,44.11,0,0,0,5.5,1.34c1.83.49,3.7,1.42,4.54,3.11,1.67,3.34-1.43,7.45-.25,11,1,3.13,4.08,4.33,5.79,7.15a6.69,6.69,0,0,1,.8,4.1,19.75,19.75,0,0,1-1.73,6.93,49.67,49.67,0,0,1-3.8,6.24C96.76,320.27,76.24,332.1,76.06,332.2Z"/><path class="cls-12" d="M88.31,325.58a.46.46,0,0,0,.46-.4c2.21-17.5-6.15-41.1-18.62-52.61a.46.46,0,0,0-.63.68C81.8,284.58,90,307.83,87.85,325.06a.46.46,0,0,0,.4.52Z"/><path class="cls-12" d="M86.18,303.19a.46.46,0,0,0,.37-.18.47.47,0,0,0-.1-.65c-6.88-5.16-17.4-4.26-17.84-4.22a.46.46,0,1,0,.08.92c.11,0,10.61-.91,17.21,4A.47.47,0,0,0,86.18,303.19Z"/><path class="cls-12" d="M85.14,298.9a.45.45,0,0,0,.46-.44A18.69,18.69,0,0,1,92,285.55a.47.47,0,0,0,.08-.65.46.46,0,0,0-.65-.07,19.27,19.27,0,0,0-6.78,13.59.46.46,0,0,0,.44.48Z"/></g><g id="Post"><path class="cls-20" d="M198.8,317.65a58.6,58.6,0,0,1-28.63-42l-6.09-40.45a58.61,58.61,0,0,0-23.64-38.77l-7.95-5.74v4.54l4.31,3.11A58.56,58.56,0,0,1,160.43,237l6.21,40.72a58.55,58.55,0,0,0,28.62,41.9l3.54,2.05v-4Z"/><path class="cls-11" d="M198.8,317.07a57.78,57.78,0,0,1-28.13-41.5l-6.1-40.44A59.39,59.39,0,0,0,140.73,196l-7.32-5.29,96.77-55.87,7.69,5.54a58.42,58.42,0,0,1,23.44,38.44l6.1,40.45a58.76,58.76,0,0,0,28.13,41.92Z"/><path class="cls-2" d="M230.15,135.46l7.43,5.36a57.87,57.87,0,0,1,23.24,38.11l6.09,40.44a59.23,59.23,0,0,0,27.65,41.84l-95.75,55.28a57.28,57.28,0,0,1-27.65-41l-6.09-40.45a59.93,59.93,0,0,0-24-39.43l-6.7-4.83,95.83-55.33m.07-1.19-97.73,56.42,7.95,5.74a58.61,58.61,0,0,1,23.64,38.77l6.09,40.45a58.6,58.6,0,0,0,28.63,42h0l97.73-56.43a58.54,58.54,0,0,1-28.63-42l-6.09-40.44A58.57,58.57,0,0,0,238.16,140l-7.94-5.74Z"/><polygon class="cls-19" points="198.8 317.65 296.53 261.23 296.53 265.25 198.8 321.68 198.8 317.65"/><path class="cls-3" d="M150.75,187.66c-3.41,1.45-3.77,4.43-.81,6.66a12.83,12.83,0,0,0,11.53,1.41c3.41-1.45,3.78-4.44.81-6.66A12.83,12.83,0,0,0,150.75,187.66Z"/><path class="cls-12" d="M154.44,191.28a5.36,5.36,0,0,1-.89,0,3.83,3.83,0,0,1-1.78-.64c-.8-.6-.7-1.37.21-1.76h0a3.74,3.74,0,0,1,1.88-.19,3.83,3.83,0,0,1,1.78.64c.79.6.7,1.37-.21,1.75A2.94,2.94,0,0,1,154.44,191.28Z"/><path class="cls-12" d="M159.28,191.2a5.93,5.93,0,0,0-3,.31l-.9.38c-1.56.67-1.72,2-.36,3l.47.36a11,11,0,0,0,4.86-.39c1.48-.57,2.38-1.22,2.51-2.16l-.66-.43A6.23,6.23,0,0,0,159.28,191.2Z"/><path class="cls-17" d="M166.61,181.32l28.7-16.57a3.5,3.5,0,0,1,3.6.19l.27.2a1.4,1.4,0,0,1-.21,2.45L170.3,184.2a3.33,3.33,0,0,1-3.5-.31l-.31-.24A1.29,1.29,0,0,1,166.61,181.32Z"/><path class="cls-17" d="M172.92,188l14.37-8.29a.76.76,0,0,0,.15-1.28l-.26-.25a1.5,1.5,0,0,0-1.7-.2l-14.29,8.36a.76.76,0,0,0-.15,1.28l.18.18A1.5,1.5,0,0,0,172.92,188Z"/><path class="cls-21" d="M163.53,203.75,241,159a2.4,2.4,0,0,1,3.11.68l.16.23a2,2,0,0,1-.69,2.87l-77.48,44.76a2.3,2.3,0,0,1-3-.73,2.2,2.2,0,0,0-.17-.25A2,2,0,0,1,163.53,203.75Z"/><path class="cls-21" d="M168.23,211.39l77.52-44.76a2,2,0,0,1,2.83.84l.12.26a2.41,2.41,0,0,1-1,3l-77.54,44.8a1.9,1.9,0,0,1-2.73-.89c0-.09-.08-.19-.13-.28A2.34,2.34,0,0,1,168.23,211.39Z"/><path class="cls-21" d="M171.72,219.68l77.59-44.79a1.64,1.64,0,0,1,2.51,1l.12.38a2.91,2.91,0,0,1-1.29,3.14L173,224.21a1.56,1.56,0,0,1-2.41-1l-.12-.41A2.82,2.82,0,0,1,171.72,219.68Z"/><path class="cls-21" d="M174,228.72l45.09-26a1.37,1.37,0,0,1,2.19,1l.09.6a3.41,3.41,0,0,1-1.53,3.2L174.7,233.59a1.36,1.36,0,0,1-2.18-1l-.09-.63A3.38,3.38,0,0,1,174,228.72Z"/><path class="cls-3" d="M267.21,253.22l-73.8,42.62a4.76,4.76,0,0,1-6.23-1.34q-7-10.71-9.35-26.71l-3-19.59a6.82,6.82,0,0,1,3.08-6.4l73.93-42.68a2.72,2.72,0,0,1,4.36,2.1l2.95,19.59a61.77,61.77,0,0,0,9.26,26.75A3.9,3.9,0,0,1,267.21,253.22Z"/><path class="cls-18" d="M267.21,253.22l-73.8,42.62a4.76,4.76,0,0,1-6.23-1.34q-7-10.71-9.35-26.71l-3-19.59a6.82,6.82,0,0,1,3.08-6.4l73.93-42.68a2.72,2.72,0,0,1,4.36,2.1l2.95,19.59a61.77,61.77,0,0,0,9.26,26.75A3.9,3.9,0,0,1,267.21,253.22Z"/><path class="cls-3" d="M193.41,295.84l73.8-42.62a3.9,3.9,0,0,0,1.25-5.66,57.15,57.15,0,0,1-5.86-11.95l-22.89-6.47L229.54,251.7l11,8.88L202.05,240.3l-19.7,44.8a53.25,53.25,0,0,0,4.83,9.4A4.76,4.76,0,0,0,193.41,295.84Z"/><path class="cls-3" d="M224.36,224.36c2.71-1.57,5.3-.27,5.78,2.9a9.08,9.08,0,0,1-4,8.58c-2.72,1.57-5.31.27-5.78-2.9A9.06,9.06,0,0,1,224.36,224.36Z"/><path class="cls-3" d="M246.77,278.48a4.61,4.61,0,0,1-.74,0,3.25,3.25,0,0,1-1.49-.54c-.66-.5-.59-1.14.18-1.46h0a3.12,3.12,0,0,1,1.57-.17,3.25,3.25,0,0,1,1.49.54c.66.5.58,1.14-.18,1.46A2.59,2.59,0,0,1,246.77,278.48Z"/><path class="cls-3" d="M250.81,278.41a5.06,5.06,0,0,0-2.49.26l-.75.32c-1.3.55-1.44,1.65-.31,2.5l.4.3a9.21,9.21,0,0,0,4.06-.32c1.23-.48,2-1,2.1-1.81l-.56-.36A5.21,5.21,0,0,0,250.81,278.41Z"/><path class="cls-3" d="M252.23,275.18l-2.76.13-.76.65a.27.27,0,0,0,0,.41l.76.59,2.8-.11Zm-2.95,1.16a.2.2,0,1,1,.2-.2A.2.2,0,0,1,249.28,276.34Z"/><path class="cls-3" d="M266.56,270.28c0,.42-.54.77-.84,1a5.33,5.33,0,0,1-2,.62C263.1,271.09,264.35,269.71,266.56,270.28Z"/><path class="cls-3" d="M266.66,267.57c-2-1.67-5.2-2.29-7.44-1s-2.67,4-.62,5.66,5.72,1.71,7.94.42S268.69,269.24,266.66,267.57Zm-3.4-.36a1,1,0,0,1,1.15.18.51.51,0,0,1-.1.87,1,1,0,0,1-1.19-.13A.56.56,0,0,1,263.26,267.21Zm-4.07,3.13a.56.56,0,0,1,.15-.92,1,1,0,0,1,1.14.18.51.51,0,0,1-.1.87A1,1,0,0,1,259.19,270.34Zm6.74,1.25a6.76,6.76,0,0,1-5.81.18l5.77-3.27a2.42,2.42,0,0,1,1.09,1.82A1.86,1.86,0,0,1,265.93,271.59Z"/><path class="cls-3" d="M278.78,260a3.48,3.48,0,0,0-.76-.85,4.84,4.84,0,0,0-5.21-.71,2.32,2.32,0,0,0-.43,4,5.29,5.29,0,0,0,.58.38h0c2.56,1.47,7.26,1.65,7.26,1.65A8.2,8.2,0,0,0,278.78,260Zm-2.24,1.62a2.53,2.53,0,0,1-2.65-.14,1.1,1.1,0,0,1,.21-1.89,2.31,2.31,0,0,1,2.49.34C277.26,260.51,277.29,261.21,276.54,261.64Z"/></g><g id="Character"><path class="cls-22" d="M372.13,269.09l-11.05,32.25a1,1,0,0,1-2,0l-10.91-32.5Z"/><path class="cls-7" d="M359.12,301.33a1,1,0,0,0,2,0l2.16-6.3h0a5.75,5.75,0,0,1-6-.33l-.48-.33Z"/><path class="cls-3" d="M348.63,125v3.15l0,3.81-.38,136.83a15.24,15.24,0,0,0,10.07,4.74c5.78.6,11.72-1.3,13.84-4.48l.38-136.74,0-7.28C372.25,129.78,348.42,129.77,348.63,125Z"/><path class="cls-20" d="M348.55,137.05v7c-.07,2,4.28,3.36,9.3,3.83,6.67.63,14.52-1.18,14.62-3.89v-5.19l0-1.86c-.1,2.71-7.95,4.52-14.62,3.89-4.82-.45-9-1.7-9.27-3.6v0A.68.68,0,0,1,348.55,137.05Z"/><path class="cls-3" d="M348.57,138.81c-.17,4.74,23.73,4.68,23.9-.06l0-7.06c-.17,4.75-24.07,4.81-23.9.06Z"/><path class="cls-20" d="M348.63,125l0,7c-.2,4.65,22.87,4.79,23.91.35a.77.77,0,0,0,0-.27l0-7C372.25,129.78,348.42,129.77,348.63,125Z"/><path class="cls-23" d="M372.63,95.2v-.29c0-3.4-5.35-6.15-11.95-6.15s-11.95,2.75-11.95,6.15v3.2l-.1,26.93c-.1,2,4.2,3.35,9.18,3.83,6.67.66,14.56-1.1,14.71-3.8,0,0,0,0,0,0l.11-29.64C372.64,95.35,372.63,95.22,372.63,95.2Z"/><ellipse class="cls-24" cx="360.68" cy="94.91" rx="11.95" ry="6.15"/><path class="cls-10" d="M372.5,132.35l.13-37.15c-.16,2.91-5.11,5.66-10.52,5.86l-.39,172.62-.64,27.66,11.05-32.25h0Z"/><path class="cls-25" d="M333.84,161.11c4.55-.66,10.15,2.76,14.05,8.24s17.5,18.83,19,23.07c1.08,3.1.45,8.91-5.95,6.18-6.2-2.64-25.95-22-25.95-22Z"/><path class="cls-26" d="M331.67,161.11a22.76,22.76,0,0,1,4.45-.5c1.57.11,5.1,1,8.74,4.58s13.07,15,13.07,15,.42,3.21-2.74,6.79-6.12,3.59-6.12,3.59l-14-11.61Z"/><path class="cls-25" d="M362.46,186.13l9.93-14.47,0-10.63s2.2.74,3.08,4.16,2,7.41,1.53,10.34S369.69,196.11,366,198.6,362.46,186.13,362.46,186.13Z"/><polygon class="cls-25" points="317.61 156.31 319.55 168.54 331.67 167.89 329.93 153.68 317.61 156.31"/><path class="cls-27" d="M309.45,141.3s-2.89,4.39-2.56,4.82,2.46.82,2.46.82Z"/><path class="cls-25" d="M317.48,129.17c-5.85,1.24-7.54,3.81-8.09,13.1-.58,9.71.42,12.76,1.69,14.07.86.88,5.65,1,8.06.37,3-.83,9.85-3.25,13-8.13,3.76-5.75,4.75-13.54.73-16.73C327.24,127.36,319.86,128.67,317.48,129.17Z"/><path class="cls-27" d="M317.71,157a24.56,24.56,0,0,0,3.09-.78,5.48,5.48,0,0,1-2.94,1.7Z"/><path class="cls-7" d="M309,132.12a10.83,10.83,0,0,0,2.54,1c1.43.41,1.22,1,1.42,2.25a5.25,5.25,0,0,0,1.6,3.09c.56.5,1,.55,1.16,1.32a11.6,11.6,0,0,1,0,2.43c0,1.61,1.05,2.84,1.55.68,0,0,.93-3.59,3.95-3.14s3.29,3.86,1.85,6.54c-.88,1.62-3.23,1.2-3.23,1.2a10.57,10.57,0,0,0,3.16,8.14s3,2.23,7.7-.09a62.16,62.16,0,0,0,5.37-8.17c2.1-3.65,3.91-8.13,3.19-12.42a7.94,7.94,0,0,0-2-4.26c-.81-.84-.75-1-1-2.15a4.12,4.12,0,0,0-5.72-3,3.54,3.54,0,0,0-2.72-3.18,6.48,6.48,0,0,0-4.35.6,4.81,4.81,0,0,0-8.08-.5,2.55,2.55,0,0,0-2-1.17,6.12,6.12,0,0,0-2.39.38,8.85,8.85,0,0,0-1.85.78,5.92,5.92,0,0,0-2.64,6.41A5.12,5.12,0,0,0,309,132.12Z"/><path class="cls-7" d="M336.4,131.15l3.5-2.06a2,2,0,1,0-3.5,2.06Z"/><path class="cls-7" d="M339.67,312.79l.08.78a14.8,14.8,0,0,1,.08,3.12,2.76,2.76,0,0,1-1,2.08,8.81,8.81,0,0,1-2.28.9,8,8,0,0,1-5.29-.52c-1.38-.67-2.45-1.71-3.94-2.13a29.66,29.66,0,0,0-4.68-.77,10.25,10.25,0,0,1-2.06-.38,10,10,0,0,1-1.49-.67A14.71,14.71,0,0,1,314.7,312a7,7,0,0,1-1.57-3.15c-.14-.69-.42-2.68.73-2.63,5.62.26,11.19,1.46,16.83,1.4a5.68,5.68,0,0,1,1.09,0,4.64,4.64,0,0,1,1.89.89,2,2,0,0,0,1.72.42,8.67,8.67,0,0,1,2.92,0,1.4,1.4,0,0,1,1,.68,1.26,1.26,0,0,1,.08.43Z"/><path class="cls-25" d="M339.09,306.05l-.29,4.24c-.27,1.61-5.77,2.6-6.91-.26l-.54-4.81Z"/><path class="cls-7" d="M318.15,322.82a40.1,40.1,0,0,1,1,4.13c.28,1.53.67,4.08.11,5.22s-2.66,1.82-5.88,1.72c-2.09-.06-5.38,1.29-7.63,2.48s-7.13,1.64-9.56,1.3c-2.86-.41-5.8-2.14-6.23-3.33s.2-2.42,7-5.15c.06,0,9.47-2.85,12.82-6.39Z"/><path class="cls-25" d="M318.22,320.1s-.06,1.86-.07,2.93-1.31,2.63-4.57,2.44c-2.3-.13-3.88-.78-3.75-2.67l.06-2.72Z"/><path class="cls-3" d="M341.31,273.48c-1-8.26-1.69-13-1.69-13s.17-11.49.84-22.21c.73-11.58.56-26.16.85-29.05,0,0-37.2-7.94-37.5,5.47-.35,15.59.69,47.84.91,52,.31,5.9.32,12,1.32,21.6s3.85,31.75,3.85,31.75a8.87,8.87,0,0,0,8.33,0s3.23-26.73,3.11-33.53a93.23,93.23,0,0,0-1.41-14.7l2.93-30.25s1.15,9.35,1.46,15.25,1.11,9.49,2.57,20.46c1.26,9.52,4.47,29.61,4.47,29.61a7.54,7.54,0,0,0,7.91-.32S342.28,281.73,341.31,273.48Z"/><path class="cls-5" d="M341.31,273.48c-1-8.26-1.69-13-1.69-13s.17-11.49.84-22.21c.73-11.58.56-26.16.85-29.05,0,0-37.2-7.94-37.5,5.47-.35,15.59.69,47.84.91,52,.31,5.9.32,12,1.32,21.6s3.85,31.75,3.85,31.75a8.87,8.87,0,0,0,8.33,0s3.23-26.73,3.11-33.53a93.23,93.23,0,0,0-1.41-14.7l2.93-30.25s1.15,9.35,1.46,15.25,1.11,9.49,2.57,20.46c1.26,9.52,4.47,29.61,4.47,29.61a7.54,7.54,0,0,0,7.91-.32S342.28,281.73,341.31,273.48Z"/><path class="cls-28" d="M337,227.55s-2.58,4.25-10.4,7.36l-2.18,7.31-.24,12.84c-.29-4.14-.75-8.66-1.33-13.44l.88-7.53S332.36,231.48,337,227.55Z"/><path class="cls-17" d="M342.74,169c-1.49-5.31-5-7.66-8.9-7.91-1-.06-3,0-3,0,.28,2.25-6.66,3.84-12.06,2.57-1.63.43-4.32,1-5.68,1.49-3.88,1.29-8.53,6.14-9.13,18.79,0,0-.62,27.2-.43,35.1,9.58,4,18.83,4.55,24.41,3.46,11.63-2.26,13.54-7.24,13.54-7.24s-.11-6.92-.55-17.94C342.91,181.69,343.39,171.33,342.74,169Z"/><path class="cls-25" d="M297.42,214.1a7.23,7.23,0,0,1,3.4,6.05c.16,2.47.15,5.16,1.31,7.4.2.37,1.21,1.2,1.61,1.08v-3.16c.64-.82,2.4-2.34,2.85-3.27.76-1.56-.12-3.47.33-5.15a8,8,0,0,0,.59-2.08,5.79,5.79,0,0,0-1.94-4.76c-1.68-1.38-3.23-3.1-4.77-4.65-2-2-4.75-4.95-6.75-7l13.38-12.83a19.42,19.42,0,0,0,3.82-5.08c2.18-4.2,5.18-11.58,1.84-15.5-4.77,0-7.48.73-12.35,6.41-4.2,4.9-17.61,21-19.34,23.7s-2.71,4.58.59,7.61a99,99,0,0,0,8.44,6.44C292.69,211,295.16,212.5,297.42,214.1Z"/><path class="cls-27" d="M294.06,198.6a15,15,0,0,1-4.1,2.82,12.29,12.29,0,0,0,5-1.87Z"/><path class="cls-26" d="M314.6,164.76a23.29,23.29,0,0,0-5.78.43c-2.89.63-4.84,2.1-9.86,7.78s-8.54,10.32-8.54,10.32S289,186.5,293,190.12s7.65,3,7.65,3l11.27-11S320,173.73,314.6,164.76Z"/></g></g></g></svg>