<svg xmlns="http://www.w3.org/2000/svg" viewBox="0 0 173.25 35.05"><defs><style>.cls-1{fill:#fff;}</style></defs><g id="Layer_2" data-name="Layer 2"><g id="Layer_1-2" data-name="Layer 1"><path class="cls-1" d="M148.74,34.81c2.66-3.72,5-7.07,7.45-10.34a2.19,2.19,0,0,0,0-3.18c-2.48-3.18-4.8-6.49-7.64-10.36,3,.21,5.82-.33,7.75.74s3,3.75,4.68,6.06c1.32-1.81,2.56-3.36,3.62-5a3.12,3.12,0,0,1,3.19-1.65c1.63.13,3.27,0,5.42,0-2.58,3.56-4.79,6.81-7.23,9.9-1.1,1.4-1.06,2.33,0,3.71,2.42,3.14,4.66,6.42,7,9.66-6.16,2.31-9.15-1.47-11.79-6.53-1.48,2-2.78,3.47-3.82,5.14a3.57,3.57,0,0,1-3.73,1.87C152.2,34.71,150.71,34.81,148.74,34.81Z"/><path class="cls-1" d="M38.82,11.34a2.69,2.69,0,0,1,.51-.17c6-.48,6-.48,8.09,5.07,1.08,2.79,2.18,5.57,3.52,9,1.46-3.69,2.67-6.73,3.86-9.78C56.54,11,56.54,11,61.3,11.09c.49,0,1,.07,1.78.13-.45,1.13-.83,2.11-1.23,3.09C59.27,20.66,56.67,27,54.14,33.37c-.45,1.14-1.1,1.71-2.26,1.42-1.33-.33-3.13,1-4-1.07Z"/><path class="cls-1" d="M13.76,10.59v5.76c-6,1.78-7.42,3.74-7.43,10,0,2.24,0,4.48,0,6.72,0,1.3-.47,1.83-1.79,1.75s-2.71,0-4.55,0c.22-4.87-.1-9.63.78-14.15,1.05-5.4,5-8.59,10.35-9.92A14.56,14.56,0,0,1,13.76,10.59Z"/><path class="cls-1" d="M70.36,34.68H64.54c-.05-.7-.13-1.39-.13-2.08,0-6.08.06-12.16,0-18.24,0-1.72.59-2.48,2.15-2.83,1.25-.28,2.46-.72,3.85-1.15Z"/><path class="cls-1" d="M97.42,3.58c0-.57-.27-1.46-.66-1.63C95.09,1.22,93.34.7,91.31,0V12.09l-2.45-.76C82.19,9.38,75,13.48,73.59,20.06c-1.53,7.06,2.91,13.82,9.73,14.79,7.43,1,13.81-3.83,14.07-11.12C97.64,17,97.47,10.3,97.42,3.58ZM85.35,28.9a6,6,0,1,1,6-5.89A6,6,0,0,1,85.35,28.9Z"/><path class="cls-1" d="M34.36,25.93c5,0,5,0,4.16-5.05a11.89,11.89,0,0,0-9.27-9.73A12,12,0,0,0,17.41,30.44c4.52,5.63,13.8,6,17.76.71-.66-.66-1.3-1.33-2-2S31.79,28,31.13,27.39c-4.09,2.4-7.31,2-9.13-1.32.87-.05,1.63-.13,2.4-.14ZM21.93,19.76c2.42-3.89,7.38-3.85,9.67,0Z"/><path class="cls-1" d="M118.77,25.93c5,0,5,0,4.11-5.07A11.63,11.63,0,0,0,111.22,11,11.81,11.81,0,0,0,99.31,20.9a12.07,12.07,0,0,0,7.5,13.23c4.58,1.77,10.32.42,12.74-3.06l-4-3.71c-4,2.4-6.91,2.06-9.42-1.43Zm-2.69-6.13h-9.7C108.36,16,113.42,15.92,116.08,19.8Z"/><path class="cls-1" d="M137.85,10.71a12.08,12.08,0,0,0-12.08,12.1A11.87,11.87,0,0,0,137.86,35a12,12,0,0,0,12.07-12.12A12.26,12.26,0,0,0,137.85,10.71Zm-.12,18.19a6.14,6.14,0,0,1-6-6,6.12,6.12,0,0,1,5.95-6,6,6,0,1,1,0,11.92Z"/></g></g></svg>